<?xml version="1.0" encoding="UTF-8"?>
<svg width="1300px" height="52px" viewBox="0 0 1300 52" version="1.1" xmlns="http://www.w3.org/2000/svg" xmlns:xlink="http://www.w3.org/1999/xlink">
    <!-- Generator: Sketch 64 (93537) - https://sketch.com -->
    <title>Patterned Divider</title>
    <desc>Created with Sketch.</desc>
    <g id="Pattern" stroke="none" stroke-width="1" fill="none" fill-rule="evenodd">
        <g id="Patterned-Divider" transform="translate(2.000000, 2.000000)" fill="#3380C8" fill-rule="nonzero">
            <path d="M48,7.68 L49.68,6 L42,-1.68 L40.32,0 L48,7.68 Z M48,13.68 L49.68,12 L36,-1.68 L34.32,0 L48,13.68 Z M6,7.68 L13.68,0 L12,-1.68 L6,4.32 L0,-1.68 L-1.68,0 L6,7.68 Z M6,13.68 L19.68,0 L18,-1.68 L6,10.32 L0,4.32 L-1.68,6 L6,13.68 Z M6,19.68 L25.68,0 L24,-1.68 L6,16.32 L0,10.32 L-1.68,12 L6,19.68 Z M30,43.68 L49.68,24 L30,4.32 L10.32,24 L30,43.68 Z M30,40.32 L13.68,24 L30,7.68 L46.32,24 L30,40.32 Z M24,31.68 L37.68,18 L30,10.32 L16.32,24 L24,31.68 Z M30,37.68 L43.68,24 L39.024,19.296 L25.296,32.976 L30,37.68 Z M24,49.68 L25.68,48 L6,28.32 L-1.68,36 L0,37.68 L6,31.68 L24,49.68 Z M36,49.68 L49.68,36 L48,34.32 L34.32,48 L36,49.68 Z M18,49.68 L19.68,48 L6,34.32 L-1.68,42 L0,43.68 L6,37.68 L18,49.68 Z M42,49.68 L49.68,42 L48,40.32 L40.32,48 L42,49.68 Z M12,49.68 L13.68,48 L6,40.32 L-1.68,48 L0,49.68 L6,43.68 L12,49.68 Z M48,13.68 L60,1.68 L66,7.68 L73.68,0 L72,-1.68 L66,4.32 L60,-1.68 L46.32,12 L48,13.68 Z M48,37.68 L66,19.68 L69.024,22.704 L70.704,20.976 L67.68,18 L75.024,10.704 L78,13.68 L81.024,10.704 L84,13.68 L97.68,2.22044605e-16 L96,-1.68 L84,10.32 L82.704,8.976 L85.68,6 L78,-1.68 L70.32,6 L73.296,8.976 L72,10.32 L69.024,7.296 L67.296,8.976 L70.32,12 L66,16.32 L64.704,14.976 L67.68,12 L60,4.32 L52.32,12 L55.296,14.976 L54,16.32 L51.024,13.296 L49.296,14.976 L52.32,18 L46.32,24 L48,25.68 L57.024,16.704 L60,19.68 L63.024,16.704 L64.32,18 L60,22.32 L57.024,19.296 L55.296,20.976 L58.32,24 L46.32,36 L48,37.68 Z M60,16.32 L55.68,12 L60,7.68 L64.32,12 L60,16.32 Z M84,37.68 L97.68,24 L96,22.32 L84,34.32 L79.68,30 L81.024,28.704 L84,31.68 L91.68,24 L88.704,20.976 L97.68,12 L96,10.32 L87.024,19.296 L84,16.32 L81.024,19.296 L79.68,18 L82.704,14.976 L81.024,13.296 L78,16.32 L75.024,13.296 L73.296,14.976 L76.32,18 L69.024,25.296 L66,22.32 L58.32,30 L66,37.68 L73.68,30 L70.704,26.976 L72,25.68 L84,37.68 Z M84,28.32 L79.68,24 L84,19.68 L88.32,24 L84,28.32 Z M78,28.32 L73.68,24 L78,19.68 L79.296,20.976 L76.32,24 L79.296,26.976 L78,28.32 Z M48,49.68 L60,37.68 L66,43.68 L76.704,32.976 L75.024,31.296 L66,40.32 L60,34.32 L46.32,48 L48,49.68 Z M84,49.68 L97.68,36 L96,34.32 L84,46.32 L78,40.32 L70.32,48 L72,49.68 L78,43.68 L84,49.68 Z M144,7.68 L145.68,6 L142.704,2.976 L145.68,0 L144,-1.68 L139.296,2.976 L144,7.68 Z M144,13.68 L145.68,12 L132,-1.68 L130.32,0 L144,13.68 Z M96,7.68 L103.68,0 L102,-1.68 L94.32,6 L96,7.68 Z M96,37.68 L109.68,24 L97.68,12 L99.024,10.704 L102,13.68 L109.68,6 L106.704,2.976 L108,1.68 L112.32,6 L109.296,8.976 L114,13.68 L121.68,6 L118.704,2.976 L120,1.68 L124.32,6 L121.296,8.976 L126,13.68 L133.68,6 L129.024,1.296 L126,4.32 L120,-1.68 L114,4.32 L108,-1.68 L94.32,12 L103.296,20.976 L97.296,26.976 L100.32,30 L94.32,36 L96,37.68 Z M144,19.68 L145.68,18 L135.024,7.296 L133.296,8.976 L144,19.68 Z M144,49.68 L145.68,48 L127.68,30 L138,19.68 L144,25.68 L145.68,24 L132,10.32 L126,16.32 L120,10.32 L114,16.32 L108,10.32 L103.296,14.976 L111.024,22.704 L117.024,16.704 L121.296,20.976 L120,22.32 L117.024,19.296 L97.296,39.024 L100.32,42 L94.32,48 L96,49.68 L129.024,16.704 L133.296,20.976 L132,22.32 L129.024,19.296 L100.32,48 L102,49.68 L123.024,28.704 L144,49.68 Z M96,25.68 L100.704,20.976 L96,16.32 L94.32,18 L97.296,20.976 L94.32,24 L96,25.68 Z M144,37.68 L145.68,36 L135.024,25.296 L133.296,26.976 L144,37.68 Z M102,40.32 L100.704,39.024 L111.024,28.704 L112.32,30 L102,40.32 Z M132,49.68 L133.68,48 L121.68,36 L124.704,32.976 L123.024,31.296 L106.32,48 L108,49.68 L120,37.68 L132,49.68 Z M120,49.68 L121.68,48 L117.024,43.296 L115.296,45.024 L120,49.68 Z M156,13.68 L157.68,12 L144,-1.68 L142.32,0 L156,13.68 Z M156,25.68 L157.68,24 L144,10.32 L142.32,12 L156,25.68 Z M144,49.68 L147.024,46.704 L151.68,42 L153.024,40.704 L157.68,36 L153.024,31.296 L151.68,30 L147.024,25.296 L144,22.32 L142.32,24 L145.296,26.976 L142.32,30 L147.024,34.704 L150,31.68 L151.296,32.976 L148.32,36 L151.296,39.024 L150,40.32 L147.024,37.296 L142.32,42 L145.296,45.024 L142.32,48 L144,49.68 Z M168,13.68 L181.68,0 L180,-1.68 L168,10.32 L156,-1.68 L154.32,0 L168,13.68 Z M168,49.68 L181.68,36 L169.68,24 L171.024,22.704 L177.024,28.704 L178.704,26.976 L169.68,18 L178.704,8.976 L177.024,7.296 L168,16.32 L159.024,7.296 L157.296,8.976 L163.296,14.976 L162,16.32 L156,10.32 L154.32,12 L172.32,30 L171.024,31.296 L165.024,25.296 L163.296,26.976 L172.32,36 L163.296,45.024 L165.024,46.704 L174,37.68 L175.296,39.024 L166.32,48 L168,49.68 Z M180,25.68 L181.68,24 L175.68,18 L181.68,12 L180,10.32 L172.32,18 L180,25.68 Z M156,49.68 L169.68,36 L156,22.32 L154.32,24 L166.32,36 L154.32,48 L156,49.68 Z M204,25.68 L205.68,24 L193.68,12 L195.024,10.704 L204,19.68 L205.68,18 L196.704,8.976 L198,7.68 L204,13.68 L205.68,12 L192,-1.68 L186,4.32 L180,-1.68 L178.32,0 L204,25.68 Z M180,25.68 L187.68,18 L180,10.32 L178.32,12 L184.32,18 L183.024,19.296 L180,16.32 L178.32,18 L181.296,20.976 L178.32,24 L180,25.68 Z M180,49.68 L199.68,30 L192,22.32 L178.32,36 L180,37.68 L186,31.68 L190.32,36 L178.32,48 L180,49.68 Z M192,49.68 L205.68,36 L204,34.32 L190.32,48 L192,49.68 Z M252,13.68 L253.68,12 L240,-1.68 L238.32,0 L252,13.68 Z M252,25.68 L253.68,24 L247.68,18 L250.704,14.976 L246,10.32 L243.024,13.296 L241.68,12 L244.704,8.976 L240,4.32 L237.024,7.296 L228,-1.68 L226.32,0 L235.296,8.976 L232.32,12 L237.024,16.704 L240,13.68 L241.296,14.976 L238.32,18 L243.024,22.704 L246,19.68 L252,25.68 Z M213.024,16.704 L223.68,6 L216,-1.68 L214.32,0 L220.32,6 L219.024,7.296 L210,-1.68 L207.024,1.296 L204,-1.68 L202.32,0 L205.296,2.976 L202.32,6 L213.024,16.704 Z M240,49.68 L241.68,48 L235.68,42 L241.68,36 L235.68,30 L238.704,26.976 L231.024,19.296 L228,22.32 L223.68,18 L228,13.68 L252,37.68 L253.68,36 L228,10.32 L220.32,18 L226.32,24 L223.296,26.976 L231.024,34.704 L234,31.68 L238.32,36 L232.32,42 L240,49.68 Z M204,25.68 L211.68,18 L204,10.32 L202.32,12 L208.32,18 L202.32,24 L204,25.68 Z M228,49.68 L229.68,48 L223.68,42 L226.704,39.024 L216,28.32 L213.024,31.296 L211.68,30 L216,25.68 L228,37.68 L229.68,36 L216,22.32 L208.32,30 L211.296,32.976 L208.32,36 L219.024,46.704 L222,43.68 L228,49.68 Z M216,49.68 L217.68,48 L204,34.32 L202.32,36 L216,49.68 Z M252,49.68 L253.68,48 L250.704,45.024 L253.68,42 L249.024,37.296 L241.296,45.024 L246,49.68 L249.024,46.704 L252,49.68 Z M288,7.68 L289.68,6 L286.704,2.976 L289.68,0 L288,-1.68 L283.296,2.976 L288,7.68 Z M264,31.68 L265.68,30 L262.704,26.976 L268.704,20.976 L267.024,19.296 L264,22.32 L259.68,18 L264,13.68 L265.296,14.976 L262.32,18 L264,19.68 L268.704,14.976 L265.68,12 L274.704,2.976 L270,-1.68 L267.024,1.296 L264,-1.68 L259.296,2.976 L264,7.68 L265.68,6 L262.704,2.976 L264,1.68 L268.32,6 L261.024,13.296 L258,10.32 L253.296,14.976 L256.32,18 L250.32,24 L253.296,26.976 L250.32,30 L252,31.68 L256.704,26.976 L253.68,24 L258,19.68 L262.32,24 L259.296,26.976 L264,31.68 Z M279.024,34.704 L285.024,28.704 L288,31.68 L289.68,30 L286.704,26.976 L289.68,24 L283.68,18 L288,13.68 L289.296,14.976 L286.32,18 L288,19.68 L292.704,14.976 L289.68,12 L294,7.68 L298.32,12 L295.296,14.976 L300,19.68 L301.68,18 L298.704,14.976 L301.68,12 L298.704,8.976 L301.68,6 L300,4.32 L297.024,7.296 L295.68,6 L301.68,0 L300,-1.68 L297.024,1.296 L294,-1.68 L289.296,2.976 L292.32,6 L288,10.32 L276,-1.68 L274.32,0 L280.32,6 L277.296,8.976 L279.024,10.704 L282,7.68 L286.32,12 L285.024,13.296 L282,10.32 L277.296,14.976 L286.32,24 L277.296,32.976 L279.024,34.704 Z M252,13.68 L258,7.68 L261.024,10.704 L262.704,8.976 L255.024,1.296 L253.296,2.976 L256.32,6 L250.32,12 L252,13.68 Z M270,4.32 L268.704,2.976 L270,1.68 L271.296,2.976 L270,4.32 Z M294,4.32 L292.704,2.976 L294,1.68 L295.296,2.976 L294,4.32 Z M288,49.68 L289.68,48 L286.704,45.024 L289.68,42 L288,40.32 L285.024,43.296 L283.68,42 L286.704,39.024 L282,34.32 L279.024,37.296 L271.68,30 L276,25.68 L277.296,26.976 L274.32,30 L276,31.68 L280.704,26.976 L271.68,18 L273.024,16.704 L279.024,22.704 L280.704,20.976 L274.704,14.976 L277.68,12 L274.704,8.976 L277.68,6 L276,4.32 L271.296,8.976 L274.32,12 L268.32,18 L274.32,24 L273.024,25.296 L270,22.32 L265.296,26.976 L268.32,30 L264,34.32 L258,28.32 L250.32,36 L252,37.68 L258,31.68 L262.32,36 L261.024,37.296 L258,34.32 L253.296,39.024 L256.32,42 L250.32,48 L252,49.68 L264,37.68 L265.296,39.024 L259.296,45.024 L261.024,46.704 L268.704,39.024 L265.68,36 L270,31.68 L280.32,42 L277.296,45.024 L279.024,46.704 L282,43.68 L288,49.68 Z M258,16.32 L256.704,14.976 L258,13.68 L259.296,14.976 L258,16.32 Z M282,16.32 L280.704,14.976 L282,13.68 L283.296,14.976 L282,16.32 Z M297.024,46.704 L298.704,45.024 L289.68,36 L301.68,24 L294,16.32 L289.296,20.976 L291.024,22.704 L294,19.68 L298.32,24 L297.024,25.296 L294,22.32 L289.296,26.976 L292.32,30 L288,34.32 L285.024,31.296 L283.296,32.976 L292.32,42 L289.296,45.024 L291.024,46.704 L294,43.68 L297.024,46.704 Z M270,28.32 L268.704,26.976 L270,25.68 L271.296,26.976 L270,28.32 Z M294,28.32 L292.704,26.976 L294,25.68 L295.296,26.976 L294,28.32 Z M297.024,34.704 L301.68,30 L300,28.32 L295.296,32.976 L297.024,34.704 Z M300,43.68 L301.68,42 L298.704,39.024 L301.68,36 L300,34.32 L295.296,39.024 L300,43.68 Z M276,49.68 L277.68,48 L271.68,42 L273.024,40.704 L276,43.68 L277.68,42 L273.024,37.296 L262.32,48 L264,49.68 L270,43.68 L276,49.68 Z M282,40.32 L280.704,39.024 L282,37.68 L283.296,39.024 L282,40.32 Z M258,40.32 L256.704,39.024 L258,37.68 L259.296,39.024 L258,40.32 Z M312,49.68 L313.68,48 L307.68,42 L343.68,6 L336,-1.68 L334.32,0 L340.32,6 L304.32,42 L312,49.68 Z M300,37.68 L334.704,2.976 L330,-1.68 L328.32,2.22044605e-16 L331.296,2.976 L330,4.32 L324,-1.68 L322.32,2.22044605e-16 L328.32,6 L298.32,36 L300,37.68 Z M300,25.68 L319.68,6 L312,-1.68 L298.32,12 L300,13.68 L309.024,4.704 L310.32,6 L298.32,18 L301.296,20.976 L298.32,24 L300,25.68 Z M312,4.32 L310.704,2.976 L312,1.68 L313.296,2.976 L312,4.32 Z M315.024,7.296 L313.68,6 L315.024,4.704 L316.32,6 L315.024,7.296 Z M303.024,19.296 L301.68,18 L312,7.68 L313.296,8.976 L303.024,19.296 Z M330,49.68 L331.68,48 L325.68,42 L349.68,18 L346.704,14.976 L349.68,12 L348,10.32 L316.32,42 L324,49.68 L325.68,48 L322.704,45.024 L324,43.68 L330,49.68 Z M324,40.32 L322.704,39.024 L345.024,16.704 L346.32,18 L324,40.32 Z M336,49.68 L349.68,36 L348,34.32 L336,46.32 L331.68,42 L349.68,24 L348,22.32 L328.32,42 L336,49.68 Z M321.024,43.296 L319.68,42 L321.024,40.704 L322.32,42 L321.024,43.296 Z M372,13.68 L373.68,12 L360,-1.68 L358.32,0 L372,13.68 Z M372,43.68 L373.68,42 L364.704,32.976 L366,31.68 L372,37.68 L373.68,36 L367.68,30 L373.68,24 L348,-1.68 L346.32,-2.22044605e-16 L367.296,20.976 L358.32,30 L372,43.68 Z M372,49.68 L373.68,48 L355.68,30 L364.704,20.976 L351.024,7.296 L349.296,8.976 L358.32,18 L357.024,19.296 L348,10.32 L346.32,12 L355.296,20.976 L349.296,26.976 L372,49.68 Z M366,28.32 L364.704,26.976 L369.024,22.704 L370.32,24 L366,28.32 Z M354,28.32 L352.704,26.976 L357.024,22.704 L358.32,24 L354,28.32 Z M360,49.68 L361.68,48 L348,34.32 L346.32,36 L360,49.68 Z M384,13.68 L385.68,12 L372,-1.68 L370.32,0 L384,13.68 Z M384,25.68 L385.68,24 L372,10.32 L370.32,12 L384,25.68 Z M384,31.68 L385.68,30 L378,22.32 L376.32,24 L384,31.68 Z M384,37.68 L385.68,36 L372,22.32 L370.32,24 L384,37.68 Z M384,43.68 L385.68,42 L372,28.32 L370.32,30 L384,43.68 Z M384,49.68 L385.68,48 L372,34.32 L370.32,36 L384,49.68 Z M408,49.68 L412.704,45.024 L406.704,39.024 L408,37.68 L414,43.68 L424.704,32.976 L412.704,20.976 L418.704,14.976 L409.68,6 L411.024,4.704 L420,13.68 L430.704,2.976 L429.024,1.296 L426,4.32 L420,-1.68 L418.32,0 L424.32,6 L420,10.32 L411.024,1.296 L403.296,8.976 L412.32,18 L411.024,19.296 L402,10.32 L397.296,14.976 L418.32,36 L417.024,37.296 L411.024,31.296 L397.296,45.024 L399.024,46.704 L402,43.68 L408,49.68 Z M390,19.68 L397.68,12 L391.68,6 L396,1.68 L402,7.68 L409.68,0 L408,-1.68 L402,4.32 L396,-1.68 L385.296,8.976 L387.024,10.704 L390,7.68 L394.32,12 L390,16.32 L384,10.32 L382.32,12 L390,19.68 Z M384,7.68 L391.68,0 L390,-1.68 L382.32,6 L384,7.68 Z M417.024,22.704 L433.68,6 L432,4.32 L415.296,20.976 L417.024,22.704 Z M432,25.68 L433.68,24 L427.68,18 L433.68,12 L432,10.32 L424.32,18 L432,25.68 Z M396,37.68 L406.704,26.976 L396,16.32 L391.296,20.976 L400.32,30 L399.024,31.296 L390,22.32 L387.024,25.296 L384,22.32 L382.32,24 L396,37.68 Z M432,37.68 L433.68,36 L427.68,30 L430.704,26.976 L423.024,19.296 L418.32,24 L432,37.68 Z M390,49.68 L409.68,30 L408,28.32 L388.32,48 L390,49.68 Z M384,49.68 L394.704,39.024 L393.024,37.296 L390,40.32 L384,34.32 L382.32,36 L388.32,42 L382.32,48 L384,49.68 Z M432,49.68 L433.68,48 L426,40.32 L418.32,48 L420,49.68 L426,43.68 L432,49.68 Z M480,25.68 L481.68,24 L469.68,12 L481.68,0 L480,-1.68 L466.32,12 L480,25.68 Z M450,7.68 L457.68,0 L456,-1.68 L450,4.32 L444,-1.68 L442.32,0 L450,7.68 Z M471.024,40.704 L472.704,39.024 L451.68,18 L469.68,0 L468,-1.68 L450,16.32 L432,-1.68 L430.32,0 L451.296,20.976 L448.32,24 L453.024,28.704 L456,25.68 L463.296,32.976 L460.32,36 L465.024,40.704 L468,37.68 L471.024,40.704 Z M468,49.68 L481.68,36 L475.68,30 L478.704,26.976 L462,10.32 L454.32,18 L459.024,22.704 L462,19.68 L469.296,26.976 L466.32,30 L471.024,34.704 L474,31.68 L478.32,36 L468,46.32 L444,22.32 L430.32,36 L432,37.68 L444,25.68 L445.296,26.976 L442.32,30 L459.024,46.704 L462,43.68 L468,49.68 Z M432,25.68 L439.68,18 L432,10.32 L430.32,12 L436.32,18 L430.32,24 L432,25.68 Z M456,49.68 L457.68,48 L444,34.32 L430.32,48 L432,49.68 L444,37.68 L456,49.68 Z M504,7.68 L511.68,0 L510,-1.68 L507.024,1.296 L504,-1.68 L502.32,0 L505.296,2.976 L502.32,6 L504,7.68 Z M492,19.68 L499.68,12 L498,10.32 L495.024,13.296 L487.68,6 L493.68,0 L492,-1.68 L486,4.32 L480,-1.68 L478.32,0 L484.32,6 L478.32,12 L480,13.68 L486,7.68 L493.296,14.976 L490.32,18 L492,19.68 Z M486,49.68 L490.704,45.024 L481.68,36 L492,25.68 L501.024,34.704 L505.68,30 L501.024,25.296 L498,28.32 L493.68,24 L504,13.68 L508.32,18 L505.296,20.976 L510,25.68 L514.704,20.976 L505.68,12 L516,1.68 L525.024,10.704 L529.68,6 L525.024,1.296 L522,4.32 L516,-1.68 L504,10.32 L499.68,6 L502.704,2.976 L498,-1.68 L493.296,2.976 L502.32,12 L492,22.32 L483.024,13.296 L478.32,18 L483.024,22.704 L486,19.68 L490.32,24 L478.32,36 L484.32,42 L481.296,45.024 L486,49.68 Z M504,49.68 L505.68,48 L499.68,42 L510,31.68 L517.296,39.024 L514.32,42 L516,43.68 L523.68,36 L522,34.32 L519.024,37.296 L511.68,30 L522,19.68 L528,25.68 L529.68,24 L523.68,18 L529.68,12 L528,10.32 L522,16.32 L514.704,8.976 L517.68,6 L516,4.32 L508.32,12 L510,13.68 L513.024,10.704 L520.32,18 L510,28.32 L502.704,20.976 L505.68,18 L504,16.32 L496.32,24 L498,25.68 L501.024,22.704 L508.32,30 L498,40.32 L490.704,32.976 L493.68,30 L492,28.32 L484.32,36 L486,37.68 L489.024,34.704 L496.32,42 L490.32,48 L492,49.68 L498,43.68 L504,49.68 Z M480,31.68 L487.68,24 L486,22.32 L483.024,25.296 L480,22.32 L478.32,24 L481.296,26.976 L478.32,30 L480,31.68 Z M516,49.68 L529.68,36 L523.68,30 L526.704,26.976 L522,22.32 L517.296,26.976 L526.32,36 L516,46.32 L507.024,37.296 L502.32,42 L507.024,46.704 L510,43.68 L516,49.68 Z M528,49.68 L529.68,48 L526.704,45.024 L529.68,42 L528,40.32 L520.32,48 L522,49.68 L525.024,46.704 L528,49.68 Z M528,7.68 L535.68,0 L534,-1.68 L526.32,6 L528,7.68 Z M528,13.68 L541.68,0 L540,-1.68 L526.32,12 L528,13.68 Z M540,37.68 L553.68,24 L541.68,12 L553.68,2.22044605e-16 L552,-1.68 L526.32,24 L528,25.68 L540,13.68 L550.32,24 L538.32,36 L540,37.68 Z M552,19.68 L553.68,18 L547.68,12 L553.68,6 L552,4.32 L544.32,12 L552,19.68 Z M546,25.68 L547.68,24 L540,16.32 L538.32,18 L546,25.68 Z M528,31.68 L538.704,20.976 L537.024,19.296 L526.32,30 L528,31.68 Z M540,49.68 L553.68,36 L552,34.32 L540,46.32 L529.68,36 L541.68,24 L540,22.32 L526.32,36 L540,49.68 Z M537.024,34.704 L544.704,26.976 L543.024,25.296 L535.296,32.976 L537.024,34.704 Z M543.024,40.704 L553.68,30 L552,28.32 L541.296,39.024 L543.024,40.704 Z M540,43.68 L541.68,42 L534,34.32 L532.32,36 L540,43.68 Z M534,49.68 L535.68,48 L528,40.32 L526.32,42 L534,49.68 Z M600,7.68 L601.68,6 L594,-1.68 L592.32,0 L600,7.68 Z M600,13.68 L601.68,12 L588,-1.68 L586.32,0 L600,13.68 Z M570,19.68 L583.68,6 L576,-1.68 L574.32,0 L580.32,6 L573.024,13.296 L565.68,6 L568.704,2.976 L564,-1.68 L559.296,2.976 L571.296,14.976 L570,16.32 L564,10.32 L562.32,12 L570,19.68 Z M561.024,10.704 L562.704,8.976 L552,-1.68 L550.32,-2.22044605e-16 L561.024,10.704 Z M573.024,10.704 L577.68,6 L573.024,1.296 L568.32,6 L573.024,10.704 Z M558,31.68 L565.68,24 L556.704,14.976 L559.68,12 L552,4.32 L550.32,6 L553.296,8.976 L550.32,12 L556.32,18 L553.296,20.976 L558,25.68 L561.024,22.704 L562.32,24 L558,28.32 L552,22.32 L550.32,24 L558,31.68 Z M576,49.68 L577.68,48 L565.68,36 L588,13.68 L600,25.68 L601.68,24 L588,10.32 L562.32,36 L576,49.68 Z M567.024,22.704 L568.704,20.976 L561.024,13.296 L559.296,14.976 L567.024,22.704 Z M600,49.68 L601.68,48 L589.68,36 L598.704,26.976 L591.024,19.296 L571.296,39.024 L573.024,40.704 L591.024,22.704 L592.32,24 L589.296,26.976 L592.32,30 L586.32,36 L600,49.68 Z M585.024,40.704 L586.704,39.024 L583.68,36 L589.68,30 L588,28.32 L580.32,36 L585.024,40.704 Z M597.024,40.704 L601.68,36 L597.024,31.296 L592.32,36 L597.024,40.704 Z M564,49.68 L565.68,48 L552,34.32 L550.32,36 L564,49.68 Z M579.024,46.704 L583.68,42 L579.024,37.296 L574.32,42 L579.024,46.704 Z M588,49.68 L592.704,45.024 L588,40.32 L583.296,45.024 L588,49.68 Z M558,49.68 L559.68,48 L552,40.32 L550.32,42 L558,49.68 Z M648,7.68 L649.68,6 L646.704,2.976 L649.68,0 L648,-1.68 L643.296,2.976 L648,7.68 Z M648,13.68 L649.68,12 L636,-1.68 L634.32,0 L648,13.68 Z M600,7.68 L607.68,0 L606,-1.68 L598.32,6 L600,7.68 Z M600,37.68 L613.68,24 L601.68,12 L603.024,10.704 L606,13.68 L613.68,6 L610.704,2.976 L612,1.68 L616.32,6 L613.296,8.976 L618,13.68 L625.68,6 L622.704,2.976 L624,1.68 L628.32,6 L625.296,8.976 L630,13.68 L637.68,6 L633.024,1.296 L630,4.32 L624,-1.68 L618,4.32 L612,-1.68 L598.32,12 L607.296,20.976 L601.296,26.976 L604.32,30 L598.32,36 L600,37.68 Z M648,19.68 L649.68,18 L639.024,7.296 L637.296,8.976 L648,19.68 Z M648,49.68 L649.68,48 L631.68,30 L642,19.68 L648,25.68 L649.68,24 L636,10.32 L630,16.32 L624,10.32 L618,16.32 L612,10.32 L607.296,14.976 L615.024,22.704 L621.024,16.704 L625.296,20.976 L624,22.32 L621.024,19.296 L601.296,39.024 L604.32,42 L598.32,48 L600,49.68 L633.024,16.704 L637.296,20.976 L636,22.32 L633.024,19.296 L604.32,48 L606,49.68 L627.024,28.704 L648,49.68 Z M600,25.68 L604.704,20.976 L600,16.32 L598.32,18 L601.296,20.976 L598.32,24 L600,25.68 Z M648,37.68 L649.68,36 L639.024,25.296 L637.296,26.976 L648,37.68 Z M606,40.32 L604.704,39.024 L615.024,28.704 L616.32,30 L606,40.32 Z M636,49.68 L637.68,48 L625.68,36 L628.704,32.976 L627.024,31.296 L610.32,48 L612,49.68 L624,37.68 L636,49.68 Z M624,49.68 L625.68,48 L621.024,43.296 L619.296,45.024 L624,49.68 Z M696,7.68 L697.68,6 L690,-1.68 L688.32,0 L696,7.68 Z M696,13.68 L697.68,12 L684,-1.68 L682.32,0 L696,13.68 Z M648,13.68 L655.68,6 L648,-1.68 L646.32,0 L652.32,6 L646.32,12 L648,13.68 Z M648,25.68 L655.68,18 L652.704,14.976 L657.024,10.704 L660,13.68 L667.68,6 L660,-1.68 L658.32,0 L664.32,6 L660,10.32 L657.024,7.296 L649.296,14.976 L652.32,18 L646.32,24 L648,25.68 Z M648,37.68 L655.68,30 L652.704,26.976 L657.024,22.704 L660,25.68 L667.68,18 L664.704,14.976 L669.024,10.704 L672,13.68 L679.68,6 L672,-1.68 L670.32,2.22044605e-16 L676.32,6 L672,10.32 L669.024,7.296 L661.296,14.976 L664.32,18 L660,22.32 L657.024,19.296 L649.296,26.976 L652.32,30 L646.32,36 L648,37.68 Z M672,7.68 L673.68,6 L669.024,1.296 L667.296,2.976 L672,7.68 Z M648,49.68 L655.68,42 L652.704,39.024 L657.024,34.704 L660,37.68 L667.68,30 L664.704,26.976 L669.024,22.704 L672,25.68 L679.68,18 L676.704,14.976 L681.024,10.704 L696,25.68 L697.68,24 L681.024,7.296 L673.296,14.976 L676.32,18 L672,22.32 L669.024,19.296 L661.296,26.976 L664.32,30 L660,34.32 L657.024,31.296 L649.296,39.024 L652.32,42 L646.32,48 L648,49.68 Z M696,31.68 L697.68,30 L681.024,13.296 L679.296,14.976 L696,31.68 Z M660,19.68 L661.68,18 L657.024,13.296 L655.296,14.976 L660,19.68 Z M660,49.68 L667.68,42 L664.704,39.024 L669.024,34.704 L672,37.68 L679.68,30 L676.704,26.976 L681.024,22.704 L696,37.68 L697.68,36 L681.024,19.296 L673.296,26.976 L676.32,30 L672,34.32 L669.024,31.296 L661.296,39.024 L664.32,42 L658.32,48 L660,49.68 Z M672,31.68 L673.68,30 L669.024,25.296 L667.296,26.976 L672,31.68 Z M684,49.68 L691.68,42 L681.024,31.296 L679.296,32.976 L688.32,42 L682.32,48 L684,49.68 Z M672,49.68 L679.68,42 L675.024,37.296 L673.296,39.024 L676.32,42 L670.32,48 L672,49.68 Z M660,43.68 L661.68,42 L657.024,37.296 L655.296,39.024 L660,43.68 Z M744,7.68 L745.68,6 L738,-1.68 L736.32,0 L744,7.68 Z M744,13.68 L745.68,12 L732,-1.68 L730.32,0 L744,13.68 Z M702,7.68 L709.68,0 L708,-1.68 L702,4.32 L696,-1.68 L694.32,0 L702,7.68 Z M702,13.68 L715.68,0 L714,-1.68 L702,10.32 L696,4.32 L694.32,6 L702,13.68 Z M702,19.68 L721.68,0 L720,-1.68 L702,16.32 L696,10.32 L694.32,12 L702,19.68 Z M726,43.68 L745.68,24 L726,4.32 L706.32,24 L726,43.68 Z M726,40.32 L709.68,24 L726,7.68 L742.32,24 L726,40.32 Z M720,31.68 L733.68,18 L726,10.32 L712.32,24 L720,31.68 Z M726,37.68 L739.68,24 L735.024,19.296 L721.296,32.976 L726,37.68 Z M720,49.68 L721.68,48 L702,28.32 L694.32,36 L696,37.68 L702,31.68 L720,49.68 Z M732,49.68 L745.68,36 L744,34.32 L730.32,48 L732,49.68 Z M714,49.68 L715.68,48 L702,34.32 L694.32,42 L696,43.68 L702,37.68 L714,49.68 Z M738,49.68 L745.68,42 L744,40.32 L736.32,48 L738,49.68 Z M708,49.68 L709.68,48 L702,40.32 L694.32,48 L696,49.68 L702,43.68 L708,49.68 Z M744,13.68 L756,1.68 L762,7.68 L769.68,0 L768,-1.68 L762,4.32 L756,-1.68 L742.32,12 L744,13.68 Z M744,37.68 L762,19.68 L765.024,22.704 L766.704,20.976 L763.68,18 L771.024,10.704 L774,13.68 L777.024,10.704 L780,13.68 L793.68,2.22044605e-16 L792,-1.68 L780,10.32 L778.704,8.976 L781.68,6 L774,-1.68 L766.32,6 L769.296,8.976 L768,10.32 L765.024,7.296 L763.296,8.976 L766.32,12 L762,16.32 L760.704,14.976 L763.68,12 L756,4.32 L748.32,12 L751.296,14.976 L750,16.32 L747.024,13.296 L745.296,14.976 L748.32,18 L742.32,24 L744,25.68 L753.024,16.704 L756,19.68 L759.024,16.704 L760.32,18 L756,22.32 L753.024,19.296 L751.296,20.976 L754.32,24 L742.32,36 L744,37.68 Z M756,16.32 L751.68,12 L756,7.68 L760.32,12 L756,16.32 Z M780,37.68 L793.68,24 L792,22.32 L780,34.32 L775.68,30 L777.024,28.704 L780,31.68 L787.68,24 L784.704,20.976 L793.68,12 L792,10.32 L783.024,19.296 L780,16.32 L777.024,19.296 L775.68,18 L778.704,14.976 L777.024,13.296 L774,16.32 L771.024,13.296 L769.296,14.976 L772.32,18 L765.024,25.296 L762,22.32 L754.32,30 L762,37.68 L769.68,30 L766.704,26.976 L768,25.68 L780,37.68 Z M780,28.32 L775.68,24 L780,19.68 L784.32,24 L780,28.32 Z M774,28.32 L769.68,24 L774,19.68 L775.296,20.976 L772.32,24 L775.296,26.976 L774,28.32 Z M744,49.68 L756,37.68 L762,43.68 L772.704,32.976 L771.024,31.296 L762,40.32 L756,34.32 L742.32,48 L744,49.68 Z M780,49.68 L793.68,36 L792,34.32 L780,46.32 L774,40.32 L766.32,48 L768,49.68 L774,43.68 L780,49.68 Z M840,13.68 L841.68,12 L828,-1.68 L826.32,0 L840,13.68 Z M792,13.68 L805.68,0 L804,-1.68 L798,4.32 L792,-1.68 L790.32,0 L796.32,6 L790.32,12 L792,13.68 Z M810,43.68 L811.68,42 L793.68,24 L817.68,-2.22044605e-16 L816,-1.68 L790.32,24 L810,43.68 Z M840,25.68 L841.68,24 L822,4.32 L814.32,12 L816,13.68 L822,7.68 L840,25.68 Z M840,49.68 L841.68,48 L835.68,42 L841.68,36 L822,16.32 L814.32,24 L840,49.68 Z M816,49.68 L823.68,42 L805.68,24 L811.68,18 L810,16.32 L802.32,24 L820.32,42 L814.32,48 L816,49.68 Z M822,28.32 L817.68,24 L822,19.68 L826.32,24 L822,28.32 Z M828,34.32 L823.68,30 L828,25.68 L832.32,30 L828,34.32 Z M834,40.32 L829.68,36 L834,31.68 L838.32,36 L834,40.32 Z M804,49.68 L805.68,48 L792,34.32 L790.32,36 L796.32,42 L790.32,48 L792,49.68 L798,43.68 L804,49.68 Z M888,7.68 L889.68,6 L886.704,2.976 L889.68,0 L888,-1.68 L883.296,2.976 L888,7.68 Z M888,13.68 L889.68,12 L876,-1.68 L874.32,0 L888,13.68 Z M840,7.68 L847.68,0 L846,-1.68 L838.32,6 L840,7.68 Z M840,37.68 L853.68,24 L841.68,12 L843.024,10.704 L846,13.68 L853.68,6 L850.704,2.976 L852,1.68 L856.32,6 L853.296,8.976 L858,13.68 L865.68,6 L862.704,2.976 L864,1.68 L868.32,6 L865.296,8.976 L870,13.68 L877.68,6 L873.024,1.296 L870,4.32 L864,-1.68 L858,4.32 L852,-1.68 L838.32,12 L847.296,20.976 L841.296,26.976 L844.32,30 L838.32,36 L840,37.68 Z M888,19.68 L889.68,18 L879.024,7.296 L877.296,8.976 L888,19.68 Z M888,49.68 L889.68,48 L871.68,30 L882,19.68 L888,25.68 L889.68,24 L876,10.32 L870,16.32 L864,10.32 L858,16.32 L852,10.32 L847.296,14.976 L855.024,22.704 L861.024,16.704 L865.296,20.976 L864,22.32 L861.024,19.296 L841.296,39.024 L844.32,42 L838.32,48 L840,49.68 L873.024,16.704 L877.296,20.976 L876,22.32 L873.024,19.296 L844.32,48 L846,49.68 L867.024,28.704 L888,49.68 Z M840,25.68 L844.704,20.976 L840,16.32 L838.32,18 L841.296,20.976 L838.32,24 L840,25.68 Z M888,37.68 L889.68,36 L879.024,25.296 L877.296,26.976 L888,37.68 Z M846,40.32 L844.704,39.024 L855.024,28.704 L856.32,30 L846,40.32 Z M876,49.68 L877.68,48 L865.68,36 L868.704,32.976 L867.024,31.296 L850.32,48 L852,49.68 L864,37.68 L876,49.68 Z M864,49.68 L865.68,48 L861.024,43.296 L859.296,45.024 L864,49.68 Z M900,13.68 L901.68,12 L888,-1.68 L886.32,0 L900,13.68 Z M900,25.68 L901.68,24 L888,10.32 L886.32,12 L900,25.68 Z M888,49.68 L891.024,46.704 L895.68,42 L897.024,40.704 L901.68,36 L897.024,31.296 L895.68,30 L891.024,25.296 L888,22.32 L886.32,24 L889.296,26.976 L886.32,30 L891.024,34.704 L894,31.68 L895.296,32.976 L892.32,36 L895.296,39.024 L894,40.32 L891.024,37.296 L886.32,42 L889.296,45.024 L886.32,48 L888,49.68 Z M912,13.68 L925.68,0 L924,-1.68 L912,10.32 L900,-1.68 L898.32,0 L912,13.68 Z M912,49.68 L925.68,36 L913.68,24 L915.024,22.704 L921.024,28.704 L922.704,26.976 L913.68,18 L922.704,8.976 L921.024,7.296 L912,16.32 L903.024,7.296 L901.296,8.976 L907.296,14.976 L906,16.32 L900,10.32 L898.32,12 L916.32,30 L915.024,31.296 L909.024,25.296 L907.296,26.976 L916.32,36 L907.296,45.024 L909.024,46.704 L918,37.68 L919.296,39.024 L910.32,48 L912,49.68 Z M924,25.68 L925.68,24 L919.68,18 L925.68,12 L924,10.32 L916.32,18 L924,25.68 Z M900,49.68 L913.68,36 L900,22.32 L898.32,24 L910.32,36 L898.32,48 L900,49.68 Z M948,25.68 L949.68,24 L937.68,12 L939.024,10.704 L948,19.68 L949.68,18 L940.704,8.976 L942,7.68 L948,13.68 L949.68,12 L936,-1.68 L930,4.32 L924,-1.68 L922.32,0 L948,25.68 Z M924,25.68 L931.68,18 L924,10.32 L922.32,12 L928.32,18 L927.024,19.296 L924,16.32 L922.32,18 L925.296,20.976 L922.32,24 L924,25.68 Z M924,49.68 L943.68,30 L936,22.32 L922.32,36 L924,37.68 L930,31.68 L934.32,36 L922.32,48 L924,49.68 Z M936,49.68 L949.68,36 L948,34.32 L934.32,48 L936,49.68 Z M984,7.68 L985.68,6 L982.704,2.976 L985.68,0 L984,-1.68 L979.296,2.976 L984,7.68 Z M960,31.68 L961.68,30 L958.704,26.976 L964.704,20.976 L963.024,19.296 L960,22.32 L955.68,18 L960,13.68 L961.296,14.976 L958.32,18 L960,19.68 L964.704,14.976 L961.68,12 L970.704,2.976 L966,-1.68 L963.024,1.296 L960,-1.68 L955.296,2.976 L960,7.68 L961.68,6 L958.704,2.976 L960,1.68 L964.32,6 L957.024,13.296 L954,10.32 L949.296,14.976 L952.32,18 L946.32,24 L949.296,26.976 L946.32,30 L948,31.68 L952.704,26.976 L949.68,24 L954,19.68 L958.32,24 L955.296,26.976 L960,31.68 Z M975.024,34.704 L981.024,28.704 L984,31.68 L985.68,30 L982.704,26.976 L985.68,24 L979.68,18 L984,13.68 L985.296,14.976 L982.32,18 L984,19.68 L988.704,14.976 L985.68,12 L990,7.68 L994.32,12 L991.296,14.976 L996,19.68 L997.68,18 L994.704,14.976 L997.68,12 L994.704,8.976 L997.68,6 L996,4.32 L993.024,7.296 L991.68,6 L997.68,0 L996,-1.68 L993.024,1.296 L990,-1.68 L985.296,2.976 L988.32,6 L984,10.32 L972,-1.68 L970.32,0 L976.32,6 L973.296,8.976 L975.024,10.704 L978,7.68 L982.32,12 L981.024,13.296 L978,10.32 L973.296,14.976 L982.32,24 L973.296,32.976 L975.024,34.704 Z M948,13.68 L954,7.68 L957.024,10.704 L958.704,8.976 L951.024,1.296 L949.296,2.976 L952.32,6 L946.32,12 L948,13.68 Z M966,4.32 L964.704,2.976 L966,1.68 L967.296,2.976 L966,4.32 Z M990,4.32 L988.704,2.976 L990,1.68 L991.296,2.976 L990,4.32 Z M984,49.68 L985.68,48 L982.704,45.024 L985.68,42 L984,40.32 L981.024,43.296 L979.68,42 L982.704,39.024 L978,34.32 L975.024,37.296 L967.68,30 L972,25.68 L973.296,26.976 L970.32,30 L972,31.68 L976.704,26.976 L967.68,18 L969.024,16.704 L975.024,22.704 L976.704,20.976 L970.704,14.976 L973.68,12 L970.704,8.976 L973.68,6 L972,4.32 L967.296,8.976 L970.32,12 L964.32,18 L970.32,24 L969.024,25.296 L966,22.32 L961.296,26.976 L964.32,30 L960,34.32 L954,28.32 L946.32,36 L948,37.68 L954,31.68 L958.32,36 L957.024,37.296 L954,34.32 L949.296,39.024 L952.32,42 L946.32,48 L948,49.68 L960,37.68 L961.296,39.024 L955.296,45.024 L957.024,46.704 L964.704,39.024 L961.68,36 L966,31.68 L976.32,42 L973.296,45.024 L975.024,46.704 L978,43.68 L984,49.68 Z M954,16.32 L952.704,14.976 L954,13.68 L955.296,14.976 L954,16.32 Z M978,16.32 L976.704,14.976 L978,13.68 L979.296,14.976 L978,16.32 Z M993.024,46.704 L994.704,45.024 L985.68,36 L997.68,24 L990,16.32 L985.296,20.976 L987.024,22.704 L990,19.68 L994.32,24 L993.024,25.296 L990,22.32 L985.296,26.976 L988.32,30 L984,34.32 L981.024,31.296 L979.296,32.976 L988.32,42 L985.296,45.024 L987.024,46.704 L990,43.68 L993.024,46.704 Z M966,28.32 L964.704,26.976 L966,25.68 L967.296,26.976 L966,28.32 Z M990,28.32 L988.704,26.976 L990,25.68 L991.296,26.976 L990,28.32 Z M993.024,34.704 L997.68,30 L996,28.32 L991.296,32.976 L993.024,34.704 Z M996,43.68 L997.68,42 L994.704,39.024 L997.68,36 L996,34.32 L991.296,39.024 L996,43.68 Z M972,49.68 L973.68,48 L967.68,42 L969.024,40.704 L972,43.68 L973.68,42 L969.024,37.296 L958.32,48 L960,49.68 L966,43.68 L972,49.68 Z M978,40.32 L976.704,39.024 L978,37.68 L979.296,39.024 L978,40.32 Z M954,40.32 L952.704,39.024 L954,37.68 L955.296,39.024 L954,40.32 Z M1008,49.68 L1009.68,48 L1003.68,42 L1039.68,6 L1032,-1.68 L1030.32,0 L1036.32,6 L1000.32,42 L1008,49.68 Z M996,37.68 L1030.704,2.976 L1026,-1.68 L1024.32,2.22044605e-16 L1027.296,2.976 L1026,4.32 L1020,-1.68 L1018.32,2.22044605e-16 L1024.32,6 L994.32,36 L996,37.68 Z M996,25.68 L1015.68,6 L1008,-1.68 L994.32,12 L996,13.68 L1005.024,4.704 L1006.32,6 L994.32,18 L997.296,20.976 L994.32,24 L996,25.68 Z M1008,4.32 L1006.704,2.976 L1008,1.68 L1009.296,2.976 L1008,4.32 Z M1011.024,7.296 L1009.68,6 L1011.024,4.704 L1012.32,6 L1011.024,7.296 Z M999.024,19.296 L997.68,18 L1008,7.68 L1009.296,8.976 L999.024,19.296 Z M1026,49.68 L1027.68,48 L1021.68,42 L1045.68,18 L1042.704,14.976 L1045.68,12 L1044,10.32 L1012.32,42 L1020,49.68 L1021.68,48 L1018.704,45.024 L1020,43.68 L1026,49.68 Z M1020,40.32 L1018.704,39.024 L1041.024,16.704 L1042.32,18 L1020,40.32 Z M1032,49.68 L1045.68,36 L1044,34.32 L1032,46.32 L1027.68,42 L1045.68,24 L1044,22.32 L1024.32,42 L1032,49.68 Z M1017.024,43.296 L1015.68,42 L1017.024,40.704 L1018.32,42 L1017.024,43.296 Z M1068,13.68 L1069.68,12 L1056,-1.68 L1054.32,0 L1068,13.68 Z M1068,43.68 L1069.68,42 L1060.704,32.976 L1062,31.68 L1068,37.68 L1069.68,36 L1063.68,30 L1069.68,24 L1044,-1.68 L1042.32,-2.22044605e-16 L1063.296,20.976 L1054.32,30 L1068,43.68 Z M1068,49.68 L1069.68,48 L1051.68,30 L1060.704,20.976 L1047.024,7.296 L1045.296,8.976 L1054.32,18 L1053.024,19.296 L1044,10.32 L1042.32,12 L1051.296,20.976 L1045.296,26.976 L1068,49.68 Z M1062,28.32 L1060.704,26.976 L1065.024,22.704 L1066.32,24 L1062,28.32 Z M1050,28.32 L1048.704,26.976 L1053.024,22.704 L1054.32,24 L1050,28.32 Z M1056,49.68 L1057.68,48 L1044,34.32 L1042.32,36 L1056,49.68 Z M1080,13.68 L1081.68,12 L1068,-1.68 L1066.32,0 L1080,13.68 Z M1080,25.68 L1081.68,24 L1068,10.32 L1066.32,12 L1080,25.68 Z M1080,31.68 L1081.68,30 L1074,22.32 L1072.32,24 L1080,31.68 Z M1080,37.68 L1081.68,36 L1068,22.32 L1066.32,24 L1080,37.68 Z M1080,43.68 L1081.68,42 L1068,28.32 L1066.32,30 L1080,43.68 Z M1080,49.68 L1081.68,48 L1068,34.32 L1066.32,36 L1080,49.68 Z M1104,49.68 L1108.704,45.024 L1102.704,39.024 L1104,37.68 L1110,43.68 L1120.704,32.976 L1108.704,20.976 L1114.704,14.976 L1105.68,6 L1107.024,4.704 L1116,13.68 L1126.704,2.976 L1125.024,1.296 L1122,4.32 L1116,-1.68 L1114.32,0 L1120.32,6 L1116,10.32 L1107.024,1.296 L1099.296,8.976 L1108.32,18 L1107.024,19.296 L1098,10.32 L1093.296,14.976 L1114.32,36 L1113.024,37.296 L1107.024,31.296 L1093.296,45.024 L1095.024,46.704 L1098,43.68 L1104,49.68 Z M1086,19.68 L1093.68,12 L1087.68,6 L1092,1.68 L1098,7.68 L1105.68,0 L1104,-1.68 L1098,4.32 L1092,-1.68 L1081.296,8.976 L1083.024,10.704 L1086,7.68 L1090.32,12 L1086,16.32 L1080,10.32 L1078.32,12 L1086,19.68 Z M1080,7.68 L1087.68,0 L1086,-1.68 L1078.32,6 L1080,7.68 Z M1113.024,22.704 L1129.68,6 L1128,4.32 L1111.296,20.976 L1113.024,22.704 Z M1128,25.68 L1129.68,24 L1123.68,18 L1129.68,12 L1128,10.32 L1120.32,18 L1128,25.68 Z M1092,37.68 L1102.704,26.976 L1092,16.32 L1087.296,20.976 L1096.32,30 L1095.024,31.296 L1086,22.32 L1083.024,25.296 L1080,22.32 L1078.32,24 L1092,37.68 Z M1128,37.68 L1129.68,36 L1123.68,30 L1126.704,26.976 L1119.024,19.296 L1114.32,24 L1128,37.68 Z M1086,49.68 L1105.68,30 L1104,28.32 L1084.32,48 L1086,49.68 Z M1080,49.68 L1090.704,39.024 L1089.024,37.296 L1086,40.32 L1080,34.32 L1078.32,36 L1084.32,42 L1078.32,48 L1080,49.68 Z M1128,49.68 L1129.68,48 L1122,40.32 L1114.32,48 L1116,49.68 L1122,43.68 L1128,49.68 Z M1131.024,22.704 L1153.68,0 L1152,-1.68 L1146,4.32 L1140,-1.68 L1137.024,1.296 L1134,-1.68 L1132.32,0 L1140,7.68 L1141.68,6 L1138.704,2.976 L1140,1.68 L1144.32,6 L1134,16.32 L1129.68,12 L1131.024,10.704 L1134,13.68 L1135.68,12 L1132.704,8.976 L1134,7.68 L1137.024,10.704 L1138.704,8.976 L1131.024,1.296 L1129.296,2.976 L1132.32,6 L1131.024,7.296 L1128,4.32 L1126.32,6 L1129.296,8.976 L1126.32,12 L1132.32,18 L1129.296,20.976 L1131.024,22.704 Z M1176,43.68 L1177.68,42 L1174.704,39.024 L1177.68,36 L1171.68,30 L1177.68,24 L1176,22.32 L1170,28.32 L1165.68,24 L1167.024,22.704 L1170,25.68 L1171.68,24 L1164,16.32 L1162.32,18 L1165.296,20.976 L1164,22.32 L1159.68,18 L1164,13.68 L1173.024,22.704 L1174.704,20.976 L1171.68,18 L1173.024,16.704 L1176,19.68 L1177.68,18 L1174.704,14.976 L1177.68,12 L1171.68,6 L1174.704,2.976 L1173.024,1.296 L1170,4.32 L1168.704,2.976 L1171.68,-2.22044605e-16 L1170,-1.68 L1167.024,1.296 L1164,-1.68 L1158,4.32 L1155.024,1.296 L1153.296,2.976 L1161.024,10.704 L1162.704,8.976 L1159.68,6 L1164,1.68 L1165.296,2.976 L1162.32,6 L1164,7.68 L1167.024,4.704 L1168.32,6 L1165.296,8.976 L1167.024,10.704 L1170,7.68 L1174.32,12 L1173.024,13.296 L1170,10.32 L1168.32,12 L1171.296,14.976 L1170,16.32 L1164,10.32 L1158,16.32 L1156.704,14.976 L1159.68,12 L1158,10.32 L1155.024,13.296 L1153.68,12 L1156.704,8.976 L1155.024,7.296 L1152,10.32 L1150.704,8.976 L1153.68,6 L1152,4.32 L1144.32,12 L1146,13.68 L1149.024,10.704 L1150.32,12 L1147.296,14.976 L1149.024,16.704 L1152,13.68 L1153.296,14.976 L1150.32,18 L1152,19.68 L1155.024,16.704 L1156.32,18 L1150.32,24 L1152,25.68 L1158,19.68 L1162.32,24 L1161.024,25.296 L1158,22.32 L1156.32,24 L1164,31.68 L1165.68,30 L1162.704,26.976 L1164,25.68 L1168.32,30 L1162.32,36 L1164,37.68 L1170,31.68 L1174.32,36 L1173.024,37.296 L1170,34.32 L1168.32,36 L1176,43.68 Z M1146,49.68 L1147.68,48 L1140,40.32 L1138.32,42 L1141.296,45.024 L1140,46.32 L1135.68,42 L1141.68,36 L1135.68,30 L1137.024,28.704 L1140,31.68 L1141.68,30 L1138.704,26.976 L1140,25.68 L1144.32,30 L1141.296,32.976 L1143.024,34.704 L1146,31.68 L1147.296,32.976 L1144.32,36 L1146,37.68 L1149.024,34.704 L1150.32,36 L1146,40.32 L1143.024,37.296 L1141.296,39.024 L1149.024,46.704 L1150.704,45.024 L1147.68,42 L1152,37.68 L1153.296,39.024 L1150.32,42 L1152,43.68 L1159.68,36 L1158,34.32 L1155.024,37.296 L1153.68,36 L1158,31.68 L1161.024,34.704 L1162.704,32.976 L1155.024,25.296 L1153.296,26.976 L1156.32,30 L1152,34.32 L1150.704,32.976 L1153.68,30 L1152,28.32 L1149.024,31.296 L1147.68,30 L1150.704,26.976 L1149.024,25.296 L1146,28.32 L1141.68,24 L1143.024,22.704 L1146,25.68 L1147.68,24 L1144.704,20.976 L1146,19.68 L1149.024,22.704 L1150.704,20.976 L1143.024,13.296 L1141.296,14.976 L1144.32,18 L1143.024,19.296 L1140,16.32 L1138.32,18 L1141.296,20.976 L1140,22.32 L1137.024,19.296 L1135.296,20.976 L1138.32,24 L1137.024,25.296 L1134,22.32 L1132.32,24 L1135.296,26.976 L1134,28.32 L1131.024,25.296 L1129.296,26.976 L1138.32,36 L1134,40.32 L1129.68,36 L1131.024,34.704 L1134,37.68 L1135.68,36 L1128,28.32 L1126.32,30 L1129.296,32.976 L1126.32,36 L1132.32,42 L1126.32,48 L1128,49.68 L1134,43.68 L1140,49.68 L1143.024,46.704 L1146,49.68 Z M1164,49.68 L1170,43.68 L1173.024,46.704 L1174.704,45.024 L1167.024,37.296 L1165.296,39.024 L1168.32,42 L1164,46.32 L1162.704,45.024 L1165.68,42 L1164,40.32 L1161.024,43.296 L1159.68,42 L1162.704,39.024 L1161.024,37.296 L1153.296,45.024 L1155.024,46.704 L1158,43.68 L1159.296,45.024 L1156.32,48 L1158,49.68 L1161.024,46.704 L1164,49.68 Z M1176,7.68 L1183.68,0 L1182,-1.68 L1174.32,6 L1176,7.68 Z M1176,13.68 L1189.68,0 L1188,-1.68 L1174.32,12 L1176,13.68 Z M1188,37.68 L1201.68,24 L1189.68,12 L1201.68,2.22044605e-16 L1200,-1.68 L1174.32,24 L1176,25.68 L1188,13.68 L1198.32,24 L1186.32,36 L1188,37.68 Z M1200,19.68 L1201.68,18 L1195.68,12 L1201.68,6 L1200,4.32 L1192.32,12 L1200,19.68 Z M1194,25.68 L1195.68,24 L1188,16.32 L1186.32,18 L1194,25.68 Z M1176,31.68 L1186.704,20.976 L1185.024,19.296 L1174.32,30 L1176,31.68 Z M1188,49.68 L1201.68,36 L1200,34.32 L1188,46.32 L1177.68,36 L1189.68,24 L1188,22.32 L1174.32,36 L1188,49.68 Z M1185.024,34.704 L1192.704,26.976 L1191.024,25.296 L1183.296,32.976 L1185.024,34.704 Z M1191.024,40.704 L1201.68,30 L1200,28.32 L1189.296,39.024 L1191.024,40.704 Z M1188,43.68 L1189.68,42 L1182,34.32 L1180.32,36 L1188,43.68 Z M1182,49.68 L1183.68,48 L1176,40.32 L1174.32,42 L1182,49.68 Z M1248,7.68 L1249.68,6 L1242,-1.68 L1240.32,0 L1248,7.68 Z M1248,13.68 L1249.68,12 L1236,-1.68 L1234.32,0 L1248,13.68 Z M1218,19.68 L1231.68,6 L1224,-1.68 L1222.32,0 L1228.32,6 L1221.024,13.296 L1213.68,6 L1216.704,2.976 L1212,-1.68 L1207.296,2.976 L1219.296,14.976 L1218,16.32 L1212,10.32 L1210.32,12 L1218,19.68 Z M1209.024,10.704 L1210.704,8.976 L1200,-1.68 L1198.32,-2.22044605e-16 L1209.024,10.704 Z M1221.024,10.704 L1225.68,6 L1221.024,1.296 L1216.32,6 L1221.024,10.704 Z M1206,31.68 L1213.68,24 L1204.704,14.976 L1207.68,12 L1200,4.32 L1198.32,6 L1201.296,8.976 L1198.32,12 L1204.32,18 L1201.296,20.976 L1206,25.68 L1209.024,22.704 L1210.32,24 L1206,28.32 L1200,22.32 L1198.32,24 L1206,31.68 Z M1224,49.68 L1225.68,48 L1213.68,36 L1236,13.68 L1248,25.68 L1249.68,24 L1236,10.32 L1210.32,36 L1224,49.68 Z M1215.024,22.704 L1216.704,20.976 L1209.024,13.296 L1207.296,14.976 L1215.024,22.704 Z M1248,49.68 L1249.68,48 L1237.68,36 L1246.704,26.976 L1239.024,19.296 L1219.296,39.024 L1221.024,40.704 L1239.024,22.704 L1240.32,24 L1237.296,26.976 L1240.32,30 L1234.32,36 L1248,49.68 Z M1233.024,40.704 L1234.704,39.024 L1231.68,36 L1237.68,30 L1236,28.32 L1228.32,36 L1233.024,40.704 Z M1245.024,40.704 L1249.68,36 L1245.024,31.296 L1240.32,36 L1245.024,40.704 Z M1212,49.68 L1213.68,48 L1200,34.32 L1198.32,36 L1212,49.68 Z M1227.024,46.704 L1231.68,42 L1227.024,37.296 L1222.32,42 L1227.024,46.704 Z M1236,49.68 L1240.704,45.024 L1236,40.32 L1231.296,45.024 L1236,49.68 Z M1206,49.68 L1207.68,48 L1200,40.32 L1198.32,42 L1206,49.68 Z M1296,7.68 L1297.68,6 L1294.704,2.976 L1297.68,0 L1296,-1.68 L1291.296,2.976 L1296,7.68 Z M1296,13.68 L1297.68,12 L1284,-1.68 L1282.32,0 L1296,13.68 Z M1248,7.68 L1255.68,0 L1254,-1.68 L1246.32,6 L1248,7.68 Z M1248,37.68 L1261.68,24 L1249.68,12 L1251.024,10.704 L1254,13.68 L1261.68,6 L1258.704,2.976 L1260,1.68 L1264.32,6 L1261.296,8.976 L1266,13.68 L1273.68,6 L1270.704,2.976 L1272,1.68 L1276.32,6 L1273.296,8.976 L1278,13.68 L1285.68,6 L1281.024,1.296 L1278,4.32 L1272,-1.68 L1266,4.32 L1260,-1.68 L1246.32,12 L1255.296,20.976 L1249.296,26.976 L1252.32,30 L1246.32,36 L1248,37.68 Z M1296,19.68 L1297.68,18 L1287.024,7.296 L1285.296,8.976 L1296,19.68 Z M1296,49.68 L1297.68,48 L1279.68,30 L1290,19.68 L1296,25.68 L1297.68,24 L1284,10.32 L1278,16.32 L1272,10.32 L1266,16.32 L1260,10.32 L1255.296,14.976 L1263.024,22.704 L1269.024,16.704 L1273.296,20.976 L1272,22.32 L1269.024,19.296 L1249.296,39.024 L1252.32,42 L1246.32,48 L1248,49.68 L1281.024,16.704 L1285.296,20.976 L1284,22.32 L1281.024,19.296 L1252.32,48 L1254,49.68 L1275.024,28.704 L1296,49.68 Z M1248,25.68 L1252.704,20.976 L1248,16.32 L1246.32,18 L1249.296,20.976 L1246.32,24 L1248,25.68 Z M1296,37.68 L1297.68,36 L1287.024,25.296 L1285.296,26.976 L1296,37.68 Z M1254,40.32 L1252.704,39.024 L1263.024,28.704 L1264.32,30 L1254,40.32 Z M1284,49.68 L1285.68,48 L1273.68,36 L1276.704,32.976 L1275.024,31.296 L1258.32,48 L1260,49.68 L1272,37.68 L1284,49.68 Z M1272,49.68 L1273.68,48 L1269.024,43.296 L1267.296,45.024 L1272,49.68 Z" id="0qwert8njlamb2skwp0q9wertnjlamxskw"></path>
        </g>
    </g>
</svg>