<?xml version="1.0" encoding="UTF-8"?>
<svg width="398px" height="181px" viewBox="0 0 398 181" version="1.1" xmlns="http://www.w3.org/2000/svg" xmlns:xlink="http://www.w3.org/1999/xlink">
    <title>icon_meet-the-team</title>
    <g id="Page-1" stroke="none" stroke-width="1" fill="none" fill-rule="evenodd">
        <g id="Icons" transform="translate(-121.000000, -764.000000)" stroke="#979797" stroke-width="2">
            <g id="icon_meet-the-team" transform="translate(121.000000, 764.000000)">
                <circle id="Oval-Copy-2" cx="45" cy="136" r="44"></circle>
                <ellipse id="Oval-Copy-5" cx="45" cy="45.5" rx="44" ry="44.5"></ellipse>
                <ellipse id="Oval-Copy-8" cx="199" cy="45.5" rx="44" ry="44.5"></ellipse>
                <circle id="Oval-Copy-11" cx="199" cy="134" r="44"></circle>
                <ellipse id="Oval-Copy-3" cx="108.5" cy="136" rx="44.5" ry="44"></ellipse>
                <circle id="Oval-Copy-6" cx="108.5" cy="45.5" r="44.5"></circle>
                <ellipse id="Oval-Copy-9" cx="262" cy="45.5" rx="44" ry="44.5"></ellipse>
                <circle id="Oval-Copy-14" cx="352.5" cy="45.5" r="44.5"></circle>
                <circle id="Oval-Copy-12" cx="262" cy="134" r="44"></circle>
                <ellipse id="Oval-Copy-15" cx="352.5" cy="134" rx="44.5" ry="44"></ellipse>
                <path d="M88.9864486,135 C88.6905188,145.938424 83.5669587,156.787079 75.5011864,164.852851 C67.5939435,172.760094 56.8468459,178 45,178 C32.9656305,178 22.0622019,172.942374 14.1196989,164.999871 C6.253385,157.133557 1.28659358,146.434674 1.01200701,135 L1.01200701,135 Z" id="Oval-Copy-4"></path>
                <path d="M88.9864486,45 C88.6905188,55.9384243 83.5669587,66.7870792 75.5011864,74.8528515 C67.5939435,82.7600944 56.8468459,88 45,88 C32.9656305,88 22.0622019,82.9423738 14.1196989,74.9998707 C6.253385,67.1335569 1.28659358,56.4346745 1.01200701,45 L1.01200701,45 Z" id="Oval-Copy-7"></path>
                <path d="M271.986449,3 C271.690519,13.9384243 266.566959,24.7870792 258.501186,32.8528515 C250.593943,40.7600944 239.846846,46 228,46 C215.96563,46 205.062202,40.9423738 197.119699,32.9998707 C189.253385,25.1335569 184.286594,14.4346745 184.012007,3 L184.012007,3 Z" id="Oval-Copy-10"></path>
                <path d="M197.986294,134 C197.687027,144.937296 192.5062,155.784226 184.351863,163.848956 C176.353709,171.759217 165.482698,177 153.5,177 C141.327622,177 130.298592,171.941473 122.26481,163.995975 C114.312116,156.130673 109.289827,145.433455 109.012144,134 L109.012144,134 Z" id="Oval-Copy-13"></path>
                <path d="M396.986294,134 C396.687027,144.937296 391.5062,155.784226 383.351863,163.848956 C375.353709,171.759217 364.482698,177 352.5,177 C340.327622,177 329.298592,171.941473 321.26481,163.995975 C313.312116,156.130673 308.289827,145.433455 308.012144,134 L308.012144,134 Z" id="Oval-Copy-17"></path>
                <path d="M350.987044,46 C350.697423,57.1969897 345.570761,68.3051994 337.493459,76.5619965 C329.588219,84.6429082 318.844517,90 307,90 C294.968043,90 284.067942,84.8292543 276.127426,76.7122828 C268.250127,68.6599331 263.280201,57.7055764 263.011479,46 L263.011479,46 Z" id="Oval-Copy-16"></path>
            </g>
        </g>
    </g>
</svg>