<?xml version="1.0" encoding="UTF-8"?>
<svg width="989px" height="183px" viewBox="0 0 989 183" version="1.1" xmlns="http://www.w3.org/2000/svg" xmlns:xlink="http://www.w3.org/1999/xlink">
    <title>icon_our-work</title>
    <g id="Page-1" stroke="none" stroke-width="1" fill="none" fill-rule="evenodd">
        <g id="Icons" transform="translate(-120.000000, -112.000000)" stroke="#979797" stroke-width="2">
            <g id="icon_our-work" transform="translate(121.000000, 113.000000)">
                <line x1="340.89604" y1="180.10396" x2="520.10396" y2="0.896039604" id="Line-2" stroke-linecap="square"></line>
                <line x1="376.89604" y1="180.10396" x2="556.10396" y2="0.896039604" id="Line-2" stroke-linecap="square"></line>
                <line x1="412.89604" y1="180.10396" x2="592.10396" y2="0.896039604" id="Line-2" stroke-linecap="square"></line>
                <line x1="448.89604" y1="180.10396" x2="628.10396" y2="0.896039604" id="Line-2" stroke-linecap="square"></line>
                <line x1="484.89604" y1="180.10396" x2="664.10396" y2="0.896039604" id="Line-2" stroke-linecap="square"></line>
                <line x1="520.89604" y1="180.10396" x2="700.10396" y2="0.896039604" id="Line-2" stroke-linecap="square"></line>
                <line x1="556.89604" y1="180.10396" x2="736.10396" y2="0.896039604" id="Line-2" stroke-linecap="square"></line>
                <line x1="591.89604" y1="180.10396" x2="771.10396" y2="0.896039604" id="Line-2" stroke-linecap="square"></line>
                <line x1="627.89604" y1="180.10396" x2="807.10396" y2="0.896039604" id="Line-2" stroke-linecap="square"></line>
                <line x1="663.89604" y1="180.10396" x2="843.10396" y2="0.896039604" id="Line-2" stroke-linecap="square"></line>
                <line x1="699.89604" y1="180.10396" x2="879.10396" y2="0.896039604" id="Line-2" stroke-linecap="square"></line>
                <line x1="735.89604" y1="180.10396" x2="915.10396" y2="0.896039604" id="Line-2" stroke-linecap="square"></line>
                <line x1="771.89604" y1="180.10396" x2="951.10396" y2="0.896039604" id="Line-2" stroke-linecap="square"></line>
                <line x1="806.89604" y1="180.10396" x2="986.10396" y2="0.896039604" id="Line-2" stroke-linecap="square"></line>
                <line x1="0.896039604" y1="180.10396" x2="180.10396" y2="0.896039604" id="Line-2" stroke-linecap="square"></line>
                <circle id="Oval" cx="250.5" cy="91.5" r="88.5"></circle>
                <path d="M338.993182,89 C338.690582,111.212117 328.33501,133.331206 311.864704,149.709499 C295.956286,165.529044 274.331068,176 250.5,176 C226.293141,176 204.358394,165.888129 188.381279,150.000271 C172.329754,134.038419 162.286568,112.24372 162.006035,89 L162.006035,89 Z" id="Oval"></path>
            </g>
        </g>
    </g>
</svg>