<svg width="915" height="48" viewBox="0 0 915 48" fill="none" xmlns="http://www.w3.org/2000/svg">
<rect width="915" height="48" fill="#0048AD"/>
<mask id="mask0" mask-type="alpha" maskUnits="userSpaceOnUse" x="0" y="0" width="915" height="48">
<rect width="915" height="48" fill="white"/>
</mask>
<g mask="url(#mask0)">
<path d="M-138.32 6L-140 7.68L-147.68 -2.86102e-06L-146 -1.68L-138.32 6ZM-138.32 12L-140 13.68L-153.68 -2.86102e-06L-152 -1.68L-138.32 12ZM-138.32 24L-158 43.68L-177.68 24L-158 4.32L-138.32 24ZM-174.32 -2.86102e-06L-182 7.68L-189.68 -2.86102e-06L-188 -1.68L-182 4.32L-176 -1.68L-174.32 -2.86102e-06ZM-168.32 -2.86102e-06L-182 13.68L-189.68 6L-188 4.32L-182 10.32L-170 -1.68L-168.32 -2.86102e-06ZM-162.32 -2.86102e-06L-182 19.68L-189.68 12L-188 10.32L-182 16.32L-164 -1.68L-162.32 -2.86102e-06ZM-138.32 36L-152 49.68L-153.68 48L-140 34.32L-138.32 36ZM-138.32 42L-146 49.68L-147.68 48L-140 40.32L-138.32 42ZM-162.32 48L-164 49.68L-182 31.68L-188 37.68L-189.68 36L-182 28.32L-162.32 48ZM-168.32 48L-170 49.68L-182 37.68L-188 43.68L-189.68 42L-182 34.32L-168.32 48ZM-174.32 48L-176 49.68L-182 43.68L-188 49.68L-189.68 48L-182 40.32L-174.32 48ZM-141.68 24L-158 7.68L-174.32 24L-158 40.32L-141.68 24ZM-150.32 18L-164 31.68L-171.68 24L-158 10.32L-150.32 18ZM-144.32 24L-158 37.68L-162.704 32.976L-148.976 19.296L-144.32 24ZM-114.32 -2.86102e-06L-122 7.68L-128 1.68L-140 13.68L-141.68 12L-128 -1.68L-122 4.32L-116 -1.68L-114.32 -2.86102e-06ZM-90.32 -2.86102e-06L-104 13.68L-106.976 10.704L-110 13.68L-112.976 10.704L-120.32 18L-117.296 20.976L-118.976 22.704L-122 19.68L-140 37.68L-141.68 36L-129.68 24L-132.704 20.976L-130.976 19.296L-128 22.32L-123.68 18L-124.976 16.704L-128 19.68L-130.976 16.704L-140 25.68L-141.68 24L-135.68 18L-138.704 14.976L-136.976 13.296L-134 16.32L-132.704 14.976L-135.68 12L-128 4.32L-120.32 12L-123.296 14.976L-122 16.32L-117.68 12L-120.704 8.976L-118.976 7.296L-116 10.32L-114.704 8.976L-117.68 6L-110 -1.68L-102.32 6L-105.296 8.976L-104 10.32L-92 -1.68L-90.32 -2.86102e-06ZM-90.32 24L-104 37.68L-116 25.68L-117.296 26.976L-114.32 30L-122 37.68L-129.68 30L-122 22.32L-118.976 25.296L-111.68 18L-114.704 14.976L-112.976 13.296L-110 16.32L-106.976 13.296L-105.296 14.976L-108.32 18L-106.976 19.296L-104 16.32L-100.976 19.296L-92 10.32L-90.32 12L-99.296 20.976L-96.32 24L-104 31.68L-106.976 28.704L-108.32 30L-104 34.32L-92 22.32L-90.32 24ZM-90.32 36L-104 49.68L-110 43.68L-116 49.68L-117.68 48L-110 40.32L-104 46.32L-92 34.32L-90.32 36ZM-111.296 32.976L-122 43.68L-128 37.68L-140 49.68L-141.68 48L-128 34.32L-122 40.32L-112.976 31.296L-111.296 32.976ZM-99.68 24L-104 19.68L-108.32 24L-104 28.32L-99.68 24ZM-108.704 26.976L-111.68 24L-108.704 20.976L-110 19.68L-114.32 24L-110 28.32L-108.704 26.976ZM-123.68 12L-128 7.68L-132.32 12L-128 16.32L-123.68 12ZM-42.32 6L-44 7.68L-48.704 2.976L-44 -1.68L-42.32 -2.86102e-06L-45.296 2.976L-42.32 6ZM-42.32 12L-44 13.68L-57.68 -2.86102e-06L-56 -1.68L-42.32 12ZM-42.32 18L-44 19.68L-54.704 8.976L-52.976 7.296L-42.32 18ZM-42.32 36L-44 37.68L-54.704 26.976L-52.976 25.296L-42.32 36ZM-84.32 -2.86102e-06L-92 7.68L-93.68 6L-86 -1.68L-84.32 -2.86102e-06ZM-54.32 6L-62 13.68L-66.704 8.976L-63.68 6L-68 1.68L-69.296 2.976L-66.32 6L-74 13.68L-78.704 8.976L-75.68 6L-80 1.68L-81.296 2.976L-78.32 6L-86 13.68L-88.976 10.704L-90.32 12L-78.32 24L-92 37.68L-93.68 36L-87.68 30L-90.704 26.976L-84.704 20.976L-93.68 12L-80 -1.68L-74 4.32L-68 -1.68L-62 4.32L-58.976 1.296L-54.32 6ZM-42.32 48L-44 49.68L-64.976 28.704L-86 49.68L-87.68 48L-58.976 19.296L-56 22.32L-54.704 20.976L-58.976 16.704L-92 49.68L-93.68 48L-87.68 42L-90.704 39.024L-70.976 19.296L-68 22.32L-66.704 20.976L-70.976 16.704L-76.976 22.704L-84.704 14.976L-80 10.32L-74 16.32L-68 10.32L-62 16.32L-56 10.32L-42.32 24L-44 25.68L-50 19.68L-60.32 30L-42.32 48ZM-54.32 48L-56 49.68L-68 37.68L-80 49.68L-81.68 48L-64.976 31.296L-63.296 32.976L-66.32 36L-54.32 48ZM-87.296 20.976L-92 25.68L-93.68 24L-90.704 20.976L-93.68 18L-92 16.32L-87.296 20.976ZM-66.32 48L-68 49.68L-72.704 45.024L-70.976 43.296L-66.32 48ZM-75.68 30L-76.976 28.704L-87.296 39.024L-86 40.32L-75.68 30ZM-30.32 12L-32 13.68L-45.68 -2.86102e-06L-44 -1.68L-30.32 12ZM-30.32 24L-32 25.68L-45.68 12L-44 10.32L-30.32 24ZM-30.32 36L-34.976 40.704L-36.32 42L-40.976 46.704L-44 49.68L-45.68 48L-42.704 45.024L-45.68 42L-40.976 37.296L-38 40.32L-36.704 39.024L-39.68 36L-36.704 32.976L-38 31.68L-40.976 34.704L-45.68 30L-42.704 26.976L-45.68 24L-44 22.32L-40.976 25.296L-36.32 30L-34.976 31.296L-30.32 36ZM-6.32 -2.86102e-06L-20 13.68L-33.68 -2.86102e-06L-32 -1.68L-20 10.32L-8 -1.68L-6.32 -2.86102e-06ZM-6.32 24L-8 25.68L-15.68 18L-8 10.32L-6.32 12L-12.32 18L-6.32 24ZM-6.32 36L-20 49.68L-21.68 48L-12.704 39.024L-14 37.68L-22.976 46.704L-24.704 45.024L-15.68 36L-24.704 26.976L-22.976 25.296L-16.976 31.296L-15.68 30L-33.68 12L-32 10.32L-26 16.32L-24.704 14.976L-30.704 8.976L-28.976 7.296L-20 16.32L-10.976 7.296L-9.296 8.976L-18.32 18L-9.296 26.976L-10.976 28.704L-16.976 22.704L-18.32 24L-6.32 36ZM-18.32 36L-32 49.68L-33.68 48L-21.68 36L-33.68 24L-32 22.32L-18.32 36ZM17.68 24L16 25.68L-9.68 -2.86102e-06L-8 -1.68L-2 4.32L4 -1.68L17.68 12L16 13.68L10 7.68L8.704 8.976L17.68 18L16 19.68L7.024 10.704L5.68 12L17.68 24ZM-0.319999 18L-8 25.68L-9.68 24L-6.704 20.976L-9.68 18L-8 16.32L-4.976 19.296L-3.68 18L-9.68 12L-8 10.32L-0.319999 18ZM17.68 36L4 49.68L2.32 48L16 34.32L17.68 36ZM11.68 30L-8 49.68L-9.68 48L2.32 36L-2 31.68L-8 37.68L-9.68 36L4 22.32L11.68 30ZM65.68 12L64 13.68L50.32 -2.86102e-06L52 -1.68L65.68 12ZM65.68 24L64 25.68L58 19.68L55.024 22.704L50.32 18L53.296 14.976L52 13.68L49.024 16.704L44.32 12L47.296 8.976L38.32 -2.86102e-06L40 -1.68L49.024 7.296L52 4.32L56.704 8.976L53.68 12L55.024 13.296L58 10.32L62.704 14.976L59.68 18L65.68 24ZM65.68 36L64 37.68L40 13.68L35.68 18L40 22.32L43.024 19.296L50.704 26.976L47.68 30L53.68 36L47.68 42L53.68 48L52 49.68L44.32 42L50.32 36L46 31.68L43.024 34.704L35.296 26.976L38.32 24L32.32 18L40 10.32L65.68 36ZM35.68 6L25.024 16.704L14.32 6L17.296 2.976L14.32 -2.86102e-06L16 -1.68L19.024 1.296L22 -1.68L31.024 7.296L32.32 6L26.32 -2.86102e-06L28 -1.68L35.68 6ZM65.68 48L64 49.68L61.024 46.704L58 49.68L53.296 45.024L61.024 37.296L65.68 42L62.704 45.024L65.68 48ZM23.68 18L16 25.68L14.32 24L20.32 18L14.32 12L16 10.32L23.68 18ZM41.68 48L40 49.68L34 43.68L31.024 46.704L20.32 36L23.296 32.976L20.32 30L28 22.32L41.68 36L40 37.68L28 25.68L23.68 30L25.024 31.296L28 28.32L38.704 39.024L35.68 42L41.68 48ZM29.68 48L28 49.68L14.32 36L16 34.32L29.68 48ZM101.68 6L100 7.68L95.296 2.976L100 -1.68L101.68 -2.86102e-06L98.704 2.976L101.68 6ZM113.68 18L112 19.68L107.296 14.976L110.32 12L106 7.68L101.68 12L104.704 14.976L100 19.68L98.32 18L101.296 14.976L100 13.68L95.68 18L101.68 24L98.704 26.976L101.68 30L100 31.68L97.024 28.704L91.024 34.704L89.296 32.976L98.32 24L89.296 14.976L94 10.32L97.024 13.296L98.32 12L94 7.68L91.024 10.704L89.296 8.976L92.32 6L86.32 -2.86102e-06L88 -1.68L100 10.32L104.32 6L101.296 2.976L106 -1.68L109.024 1.296L112 -1.68L113.68 -2.86102e-06L107.68 6L109.024 7.296L112 4.32L113.68 6L110.704 8.976L113.68 12L110.704 14.976L113.68 18ZM113.68 30L109.024 34.704L107.296 32.976L112 28.32L113.68 30ZM113.68 24L101.68 36L110.704 45.024L109.024 46.704L106 43.68L103.024 46.704L101.296 45.024L104.32 42L95.296 32.976L97.024 31.296L100 34.32L104.32 30L101.296 26.976L106 22.32L109.024 25.296L110.32 24L106 19.68L103.024 22.704L101.296 20.976L106 16.32L113.68 24ZM113.68 42L112 43.68L107.296 39.024L112 34.32L113.68 36L110.704 39.024L113.68 42ZM74.704 8.976L73.024 10.704L70 7.68L64 13.68L62.32 12L68.32 6L65.296 2.976L67.024 1.296L74.704 8.976ZM86.704 2.976L77.68 12L80.704 14.976L76 19.68L74.32 18L77.296 14.976L76 13.68L71.68 18L76 22.32L79.024 19.296L80.704 20.976L74.704 26.976L77.68 30L76 31.68L71.296 26.976L74.32 24L70 19.68L65.68 24L68.704 26.976L64 31.68L62.32 30L65.296 26.976L62.32 24L68.32 18L65.296 14.976L70 10.32L73.024 13.296L80.32 6L76 1.68L74.704 2.976L77.68 6L76 7.68L71.296 2.976L76 -1.68L79.024 1.296L82 -1.68L86.704 2.976ZM101.68 48L100 49.68L94 43.68L91.024 46.704L89.296 45.024L92.32 42L82 31.68L77.68 36L80.704 39.024L73.024 46.704L71.296 45.024L77.296 39.024L76 37.68L64 49.68L62.32 48L68.32 42L65.296 39.024L70 34.32L73.024 37.296L74.32 36L70 31.68L64 37.68L62.32 36L70 28.32L76 34.32L80.32 30L77.296 26.976L82 22.32L85.024 25.296L86.32 24L80.32 18L86.32 12L83.296 8.976L88 4.32L89.68 6L86.704 8.976L89.68 12L86.704 14.976L92.704 20.976L91.024 22.704L85.024 16.704L83.68 18L92.704 26.976L88 31.68L86.32 30L89.296 26.976L88 25.68L83.68 30L91.024 37.296L94 34.32L98.704 39.024L95.68 42L97.024 43.296L100 40.32L101.68 42L98.704 45.024L101.68 48ZM89.68 48L88 49.68L82 43.68L76 49.68L74.32 48L85.024 37.296L89.68 42L88 43.68L85.024 40.704L83.68 42L89.68 48ZM107.296 2.976L106 1.68L104.704 2.976L106 4.32L107.296 2.976ZM83.296 2.976L82 1.68L80.704 2.976L82 4.32L83.296 2.976ZM95.296 14.976L94 13.68L92.704 14.976L94 16.32L95.296 14.976ZM107.296 26.976L106 25.68L104.704 26.976L106 28.32L107.296 26.976ZM71.296 14.976L70 13.68L68.704 14.976L70 16.32L71.296 14.976ZM83.296 26.976L82 25.68L80.704 26.976L82 28.32L83.296 26.976ZM95.296 39.024L94 37.68L92.704 39.024L94 40.32L95.296 39.024ZM71.296 39.024L70 37.68L68.704 39.024L70 40.32L71.296 39.024ZM161.68 18L137.68 42L143.68 48L142 49.68L136 43.68L134.704 45.024L137.68 48L136 49.68L128.32 42L160 10.32L161.68 12L158.704 14.976L161.68 18ZM161.68 36L148 49.68L140.32 42L160 22.32L161.68 24L143.68 42L148 46.32L160 34.32L161.68 36ZM155.68 6L119.68 42L125.68 48L124 49.68L116.32 42L152.32 6L146.32 -2.86102e-06L148 -1.68L155.68 6ZM146.704 2.976L112 37.68L110.32 36L140.32 6L134.32 -2.86102e-06L136 -1.68L142 4.32L143.296 2.976L140.32 -2.86102e-06L142 -1.68L146.704 2.976ZM131.68 6L112 25.68L110.32 24L113.296 20.976L110.32 18L122.32 6L121.024 4.704L112 13.68L110.32 12L124 -1.68L131.68 6ZM125.296 2.976L124 1.68L122.704 2.976L124 4.32L125.296 2.976ZM128.32 6L127.024 4.704L125.68 6L127.024 7.296L128.32 6ZM158.32 18L157.024 16.704L134.704 39.024L136 40.32L158.32 18ZM125.296 8.976L124 7.68L113.68 18L115.024 19.296L125.296 8.976ZM134.32 42L133.024 40.704L131.68 42L133.024 43.296L134.32 42ZM185.68 12L184 13.68L170.32 -2.86102e-06L172 -1.68L185.68 12ZM185.68 42L184 43.68L170.32 30L179.296 20.976L158.32 -2.86102e-06L160 -1.68L185.68 24L179.68 30L185.68 36L184 37.68L178 31.68L176.704 32.976L185.68 42ZM185.68 48L184 49.68L161.296 26.976L167.296 20.976L158.32 12L160 10.32L169.024 19.296L170.32 18L161.296 8.976L163.024 7.296L176.704 20.976L167.68 30L185.68 48ZM173.68 48L172 49.68L158.32 36L160 34.32L173.68 48ZM182.32 24L181.024 22.704L176.704 26.976L178 28.32L182.32 24ZM170.32 24L169.024 22.704L164.704 26.976L166 28.32L170.32 24ZM197.68 12L196 13.68L182.32 -2.86102e-06L184 -1.68L197.68 12ZM197.68 24L196 25.68L182.32 12L184 10.32L197.68 24ZM197.68 30L196 31.68L188.32 24L190 22.32L197.68 30ZM197.68 36L196 37.68L182.32 24L184 22.32L197.68 36ZM197.68 42L196 43.68L182.32 30L184 28.32L197.68 42ZM197.68 48L196 49.68L182.32 36L184 34.32L197.68 48ZM245.68 6L229.024 22.704L227.296 20.976L244 4.32L245.68 6ZM245.68 24L244 25.68L236.32 18L244 10.32L245.68 12L239.68 18L245.68 24ZM245.68 36L244 37.68L230.32 24L235.024 19.296L242.704 26.976L239.68 30L245.68 36ZM242.704 2.976L232 13.68L223.024 4.704L221.68 6L230.704 14.976L224.704 20.976L236.704 32.976L226 43.68L220 37.68L218.704 39.024L224.704 45.024L220 49.68L214 43.68L211.024 46.704L209.296 45.024L223.024 31.296L229.024 37.296L230.32 36L209.296 14.976L214 10.32L223.024 19.296L224.32 18L215.296 8.976L223.024 1.296L232 10.32L236.32 6L230.32 -2.86102e-06L232 -1.68L238 4.32L241.024 1.296L242.704 2.976ZM221.68 -2.86102e-06L214 7.68L208 1.68L203.68 6L209.68 12L202 19.68L194.32 12L196 10.32L202 16.32L206.32 12L202 7.68L199.024 10.704L197.296 8.976L208 -1.68L214 4.32L220 -1.68L221.68 -2.86102e-06ZM203.68 -2.86102e-06L196 7.68L194.32 6L202 -1.68L203.68 -2.86102e-06ZM245.68 48L244 49.68L238 43.68L232 49.68L230.32 48L238 40.32L245.68 48ZM218.704 26.976L208 37.68L194.32 24L196 22.32L199.024 25.296L202 22.32L211.024 31.296L212.32 30L203.296 20.976L208 16.32L218.704 26.976ZM221.68 30L202 49.68L200.32 48L220 28.32L221.68 30ZM206.704 39.024L196 49.68L194.32 48L200.32 42L194.32 36L196 34.32L202 40.32L205.024 37.296L206.704 39.024ZM293.68 24L292 25.68L278.32 12L292 -1.68L293.68 -2.86102e-06L281.68 12L293.68 24ZM269.68 -2.86102e-06L262 7.68L254.32 -2.86102e-06L256 -1.68L262 4.32L268 -1.68L269.68 -2.86102e-06ZM284.704 39.024L283.024 40.704L280 37.68L277.024 40.704L272.32 36L275.296 32.976L268 25.68L265.024 28.704L260.32 24L263.296 20.976L242.32 -2.86102e-06L244 -1.68L262 16.32L280 -1.68L281.68 -2.86102e-06L263.68 18L284.704 39.024ZM293.68 36L280 49.68L274 43.68L271.024 46.704L254.32 30L257.296 26.976L256 25.68L244 37.68L242.32 36L256 22.32L280 46.32L290.32 36L286 31.68L283.024 34.704L278.32 30L281.296 26.976L274 19.68L271.024 22.704L266.32 18L274 10.32L290.704 26.976L287.68 30L293.68 36ZM251.68 18L244 25.68L242.32 24L248.32 18L242.32 12L244 10.32L251.68 18ZM269.68 48L268 49.68L256 37.68L244 49.68L242.32 48L256 34.32L269.68 48ZM323.68 -2.86102e-06L316 7.68L314.32 6L317.296 2.976L314.32 -2.86102e-06L316 -1.68L319.024 1.296L322 -1.68L323.68 -2.86102e-06ZM311.68 12L304 19.68L302.32 18L305.296 14.976L298 7.68L292 13.68L290.32 12L296.32 6L290.32 -2.86102e-06L292 -1.68L298 4.32L304 -1.68L305.68 -2.86102e-06L299.68 6L307.024 13.296L310 10.32L311.68 12ZM341.68 6L337.024 10.704L328 1.68L317.68 12L326.704 20.976L322 25.68L317.296 20.976L320.32 18L316 13.68L305.68 24L310 28.32L313.024 25.296L317.68 30L313.024 34.704L304 25.68L293.68 36L302.704 45.024L298 49.68L293.296 45.024L296.32 42L290.32 36L302.32 24L298 19.68L295.024 22.704L290.32 18L295.024 13.296L304 22.32L314.32 12L305.296 2.976L310 -1.68L314.704 2.976L311.68 6L316 10.32L328 -1.68L334 4.32L337.024 1.296L341.68 6ZM341.68 24L340 25.68L334 19.68L323.68 30L331.024 37.296L334 34.32L335.68 36L328 43.68L326.32 42L329.296 39.024L322 31.68L311.68 42L317.68 48L316 49.68L310 43.68L304 49.68L302.32 48L308.32 42L301.024 34.704L298 37.68L296.32 36L304 28.32L305.68 30L302.704 32.976L310 40.32L320.32 30L313.024 22.704L310 25.68L308.32 24L316 16.32L317.68 18L314.704 20.976L322 28.32L332.32 18L325.024 10.704L322 13.68L320.32 12L328 4.32L329.68 6L326.704 8.976L334 16.32L340 10.32L341.68 12L335.68 18L341.68 24ZM341.68 36L328 49.68L322 43.68L319.024 46.704L314.32 42L319.024 37.296L328 46.32L338.32 36L329.296 26.976L334 22.32L338.704 26.976L335.68 30L341.68 36ZM341.68 48L340 49.68L337.024 46.704L334 49.68L332.32 48L340 40.32L341.68 42L338.704 45.024L341.68 48ZM299.68 24L292 31.68L290.32 30L293.296 26.976L290.32 24L292 22.32L295.024 25.296L298 22.32L299.68 24ZM365.68 18L364 19.68L356.32 12L364 4.32L365.68 6L359.68 12L365.68 18ZM347.68 -2.86102e-06L340 7.68L338.32 6L346 -1.68L347.68 -2.86102e-06ZM353.68 -2.86102e-06L340 13.68L338.32 12L352 -1.68L353.68 -2.86102e-06ZM365.68 24L352 37.68L350.32 36L362.32 24L352 13.68L340 25.68L338.32 24L364 -1.68L365.68 -2.86102e-06L353.68 12L365.68 24ZM359.68 24L358 25.68L350.32 18L352 16.32L359.68 24ZM365.68 30L355.024 40.704L353.296 39.024L364 28.32L365.68 30ZM356.704 26.976L349.024 34.704L347.296 32.976L355.024 25.296L356.704 26.976ZM350.704 20.976L340 31.68L338.32 30L349.024 19.296L350.704 20.976ZM365.68 36L352 49.68L338.32 36L352 22.32L353.68 24L341.68 36L352 46.32L364 34.32L365.68 36ZM353.68 42L352 43.68L344.32 36L346 34.32L353.68 42ZM347.68 48L346 49.68L338.32 42L340 40.32L347.68 48ZM413.68 6L412 7.68L404.32 -2.86102e-06L406 -1.68L413.68 6ZM413.68 12L412 13.68L398.32 -2.86102e-06L400 -1.68L413.68 12ZM389.68 6L385.024 10.704L380.32 6L385.024 1.296L389.68 6ZM395.68 6L382 19.68L374.32 12L376 10.32L382 16.32L383.296 14.976L371.296 2.976L376 -1.68L380.704 2.976L377.68 6L385.024 13.296L392.32 6L386.32 -2.86102e-06L388 -1.68L395.68 6ZM413.68 36L409.024 40.704L404.32 36L409.024 31.296L413.68 36ZM374.704 8.976L373.024 10.704L362.32 -2.86102e-06L364 -1.68L374.704 8.976ZM413.68 24L412 25.68L400 13.68L377.68 36L389.68 48L388 49.68L374.32 36L400 10.32L413.68 24ZM413.68 48L412 49.68L398.32 36L404.32 30L401.296 26.976L404.32 24L403.024 22.704L385.024 40.704L383.296 39.024L403.024 19.296L410.704 26.976L401.68 36L413.68 48ZM401.68 30L395.68 36L398.704 39.024L397.024 40.704L392.32 36L400 28.32L401.68 30ZM380.704 20.976L379.024 22.704L371.296 14.976L373.024 13.296L380.704 20.976ZM404.704 45.024L400 49.68L395.296 45.024L400 40.32L404.704 45.024ZM377.68 24L370 31.68L362.32 24L364 22.32L370 28.32L374.32 24L373.024 22.704L370 25.68L365.296 20.976L368.32 18L362.32 12L365.296 8.976L362.32 6L364 4.32L371.68 12L368.704 14.976L377.68 24ZM395.68 42L391.024 46.704L386.32 42L391.024 37.296L395.68 42ZM377.68 48L376 49.68L362.32 36L364 34.32L377.68 48ZM371.68 48L370 49.68L362.32 42L364 40.32L371.68 48ZM461.68 6L460 7.68L455.296 2.976L460 -1.68L461.68 -2.86102e-06L458.704 2.976L461.68 6ZM461.68 12L460 13.68L446.32 -2.86102e-06L448 -1.68L461.68 12ZM461.68 18L460 19.68L449.296 8.976L451.024 7.296L461.68 18ZM461.68 36L460 37.68L449.296 26.976L451.024 25.296L461.68 36ZM419.68 -2.86102e-06L412 7.68L410.32 6L418 -1.68L419.68 -2.86102e-06ZM449.68 6L442 13.68L437.296 8.976L440.32 6L436 1.68L434.704 2.976L437.68 6L430 13.68L425.296 8.976L428.32 6L424 1.68L422.704 2.976L425.68 6L418 13.68L415.024 10.704L413.68 12L425.68 24L412 37.68L410.32 36L416.32 30L413.296 26.976L419.296 20.976L410.32 12L424 -1.68L430 4.32L436 -1.68L442 4.32L445.024 1.296L449.68 6ZM461.68 48L460 49.68L439.024 28.704L418 49.68L416.32 48L445.024 19.296L448 22.32L449.296 20.976L445.024 16.704L412 49.68L410.32 48L416.32 42L413.296 39.024L433.024 19.296L436 22.32L437.296 20.976L433.024 16.704L427.024 22.704L419.296 14.976L424 10.32L430 16.32L436 10.32L442 16.32L448 10.32L461.68 24L460 25.68L454 19.68L443.68 30L461.68 48ZM449.68 48L448 49.68L436 37.68L424 49.68L422.32 48L439.024 31.296L440.704 32.976L437.68 36L449.68 48ZM416.704 20.976L412 25.68L410.32 24L413.296 20.976L410.32 18L412 16.32L416.704 20.976ZM437.68 48L436 49.68L431.296 45.024L433.024 43.296L437.68 48ZM428.32 30L427.024 28.704L416.704 39.024L418 40.32L428.32 30ZM509.68 6L508 7.68L500.32 -2.86102e-06L502 -1.68L509.68 6ZM509.68 12L508 13.68L494.32 -2.86102e-06L496 -1.68L509.68 12ZM485.68 6L484 7.68L479.296 2.976L481.024 1.296L485.68 6ZM509.68 30L508 31.68L491.296 14.976L493.024 13.296L509.68 30ZM467.68 6L460 13.68L458.32 12L464.32 6L458.32 -2.86102e-06L460 -1.68L467.68 6ZM479.68 6L472 13.68L469.024 10.704L464.704 14.976L467.68 18L460 25.68L458.32 24L464.32 18L461.296 14.976L469.024 7.296L472 10.32L476.32 6L470.32 -2.86102e-06L472 -1.68L479.68 6ZM491.68 6L484 13.68L481.024 10.704L476.704 14.976L479.68 18L472 25.68L469.024 22.704L464.704 26.976L467.68 30L460 37.68L458.32 36L464.32 30L461.296 26.976L469.024 19.296L472 22.32L476.32 18L473.296 14.976L481.024 7.296L484 10.32L488.32 6L482.32 -2.86102e-06L484 -1.68L491.68 6ZM503.68 42L496 49.68L494.32 48L500.32 42L491.296 32.976L493.024 31.296L503.68 42ZM509.68 24L508 25.68L493.024 10.704L488.704 14.976L491.68 18L484 25.68L481.024 22.704L476.704 26.976L479.68 30L472 37.68L469.024 34.704L464.704 39.024L467.68 42L460 49.68L458.32 48L464.32 42L461.296 39.024L469.024 31.296L472 34.32L476.32 30L473.296 26.976L481.024 19.296L484 22.32L488.32 18L485.296 14.976L493.024 7.296L509.68 24ZM509.68 36L508 37.68L493.024 22.704L488.704 26.976L491.68 30L484 37.68L481.024 34.704L476.704 39.024L479.68 42L472 49.68L470.32 48L476.32 42L473.296 39.024L481.024 31.296L484 34.32L488.32 30L485.296 26.976L493.024 19.296L509.68 36ZM473.68 18L472 19.68L467.296 14.976L469.024 13.296L473.68 18ZM485.68 30L484 31.68L479.296 26.976L481.024 25.296L485.68 30ZM491.68 42L484 49.68L482.32 48L488.32 42L485.296 39.024L487.024 37.296L491.68 42ZM473.68 42L472 43.68L467.296 39.024L469.024 37.296L473.68 42ZM557.68 6L556 7.68L548.32 -2.86102e-06L550 -1.68L557.68 6ZM557.68 12L556 13.68L542.32 -2.86102e-06L544 -1.68L557.68 12ZM557.68 24L538 43.68L518.32 24L538 4.32L557.68 24ZM521.68 -2.86102e-06L514 7.68L506.32 -2.86102e-06L508 -1.68L514 4.32L520 -1.68L521.68 -2.86102e-06ZM527.68 -2.86102e-06L514 13.68L506.32 6L508 4.32L514 10.32L526 -1.68L527.68 -2.86102e-06ZM533.68 -2.86102e-06L514 19.68L506.32 12L508 10.32L514 16.32L532 -1.68L533.68 -2.86102e-06ZM557.68 36L544 49.68L542.32 48L556 34.32L557.68 36ZM557.68 42L550 49.68L548.32 48L556 40.32L557.68 42ZM533.68 48L532 49.68L514 31.68L508 37.68L506.32 36L514 28.32L533.68 48ZM527.68 48L526 49.68L514 37.68L508 43.68L506.32 42L514 34.32L527.68 48ZM521.68 48L520 49.68L514 43.68L508 49.68L506.32 48L514 40.32L521.68 48ZM554.32 24L538 7.68L521.68 24L538 40.32L554.32 24ZM545.68 18L532 31.68L524.32 24L538 10.32L545.68 18ZM551.68 24L538 37.68L533.296 32.976L547.024 19.296L551.68 24ZM581.68 -2.86102e-06L574 7.68L568 1.68L556 13.68L554.32 12L568 -1.68L574 4.32L580 -1.68L581.68 -2.86102e-06ZM605.68 -2.86102e-06L592 13.68L589.024 10.704L586 13.68L583.024 10.704L575.68 18L578.704 20.976L577.024 22.704L574 19.68L556 37.68L554.32 36L566.32 24L563.296 20.976L565.024 19.296L568 22.32L572.32 18L571.024 16.704L568 19.68L565.024 16.704L556 25.68L554.32 24L560.32 18L557.296 14.976L559.024 13.296L562 16.32L563.296 14.976L560.32 12L568 4.32L575.68 12L572.704 14.976L574 16.32L578.32 12L575.296 8.976L577.024 7.296L580 10.32L581.296 8.976L578.32 6L586 -1.68L593.68 6L590.704 8.976L592 10.32L604 -1.68L605.68 -2.86102e-06ZM605.68 24L592 37.68L580 25.68L578.704 26.976L581.68 30L574 37.68L566.32 30L574 22.32L577.024 25.296L584.32 18L581.296 14.976L583.024 13.296L586 16.32L589.024 13.296L590.704 14.976L587.68 18L589.024 19.296L592 16.32L595.024 19.296L604 10.32L605.68 12L596.704 20.976L599.68 24L592 31.68L589.024 28.704L587.68 30L592 34.32L604 22.32L605.68 24ZM605.68 36L592 49.68L586 43.68L580 49.68L578.32 48L586 40.32L592 46.32L604 34.32L605.68 36ZM584.704 32.976L574 43.68L568 37.68L556 49.68L554.32 48L568 34.32L574 40.32L583.024 31.296L584.704 32.976ZM596.32 24L592 19.68L587.68 24L592 28.32L596.32 24ZM587.296 26.976L584.32 24L587.296 20.976L586 19.68L581.68 24L586 28.32L587.296 26.976ZM572.32 12L568 7.68L563.68 12L568 16.32L572.32 12ZM653.68 12L652 13.68L638.32 -2.86102e-06L640 -1.68L653.68 12ZM653.68 24L652 25.68L634 7.68L628 13.68L626.32 12L634 4.32L653.68 24ZM653.68 48L652 49.68L626.32 24L634 16.32L653.68 36L647.68 42L653.68 48ZM617.68 -2.86102e-06L604 13.68L602.32 12L608.32 6L602.32 -2.86102e-06L604 -1.68L610 4.32L616 -1.68L617.68 -2.86102e-06ZM629.68 -2.86102e-06L605.68 24L623.68 42L622 43.68L602.32 24L628 -1.68L629.68 -2.86102e-06ZM635.68 42L628 49.68L626.32 48L632.32 42L614.32 24L622 16.32L623.68 18L617.68 24L635.68 42ZM617.68 48L616 49.68L610 43.68L604 49.68L602.32 48L608.32 42L602.32 36L604 34.32L617.68 48ZM638.32 24L634 19.68L629.68 24L634 28.32L638.32 24ZM644.32 30L640 25.68L635.68 30L640 34.32L644.32 30ZM650.32 36L646 31.68L641.68 36L646 40.32L650.32 36ZM701.68 6L700 7.68L695.296 2.976L700 -1.68L701.68 -2.86102e-06L698.704 2.976L701.68 6ZM701.68 12L700 13.68L686.32 -2.86102e-06L688 -1.68L701.68 12ZM701.68 18L700 19.68L689.296 8.976L691.024 7.296L701.68 18ZM701.68 36L700 37.68L689.296 26.976L691.024 25.296L701.68 36ZM659.68 -2.86102e-06L652 7.68L650.32 6L658 -1.68L659.68 -2.86102e-06ZM689.68 6L682 13.68L677.296 8.976L680.32 6L676 1.68L674.704 2.976L677.68 6L670 13.68L665.296 8.976L668.32 6L664 1.68L662.704 2.976L665.68 6L658 13.68L655.024 10.704L653.68 12L665.68 24L652 37.68L650.32 36L656.32 30L653.296 26.976L659.296 20.976L650.32 12L664 -1.68L670 4.32L676 -1.68L682 4.32L685.024 1.296L689.68 6ZM701.68 48L700 49.68L679.024 28.704L658 49.68L656.32 48L685.024 19.296L688 22.32L689.296 20.976L685.024 16.704L652 49.68L650.32 48L656.32 42L653.296 39.024L673.024 19.296L676 22.32L677.296 20.976L673.024 16.704L667.024 22.704L659.296 14.976L664 10.32L670 16.32L676 10.32L682 16.32L688 10.32L701.68 24L700 25.68L694 19.68L683.68 30L701.68 48ZM689.68 48L688 49.68L676 37.68L664 49.68L662.32 48L679.024 31.296L680.704 32.976L677.68 36L689.68 48ZM656.704 20.976L652 25.68L650.32 24L653.296 20.976L650.32 18L652 16.32L656.704 20.976ZM677.68 48L676 49.68L671.296 45.024L673.024 43.296L677.68 48ZM668.32 30L667.024 28.704L656.704 39.024L658 40.32L668.32 30ZM713.68 12L712 13.68L698.32 -2.86102e-06L700 -1.68L713.68 12ZM713.68 24L712 25.68L698.32 12L700 10.32L713.68 24ZM713.68 36L709.024 40.704L707.68 42L703.024 46.704L700 49.68L698.32 48L701.296 45.024L698.32 42L703.024 37.296L706 40.32L707.296 39.024L704.32 36L707.296 32.976L706 31.68L703.024 34.704L698.32 30L701.296 26.976L698.32 24L700 22.32L703.024 25.296L707.68 30L709.024 31.296L713.68 36ZM737.68 -2.86102e-06L724 13.68L710.32 -2.86102e-06L712 -1.68L724 10.32L736 -1.68L737.68 -2.86102e-06ZM737.68 24L736 25.68L728.32 18L736 10.32L737.68 12L731.68 18L737.68 24ZM737.68 36L724 49.68L722.32 48L731.296 39.024L730 37.68L721.024 46.704L719.296 45.024L728.32 36L719.296 26.976L721.024 25.296L727.024 31.296L728.32 30L710.32 12L712 10.32L718 16.32L719.296 14.976L713.296 8.976L715.024 7.296L724 16.32L733.024 7.296L734.704 8.976L725.68 18L734.704 26.976L733.024 28.704L727.024 22.704L725.68 24L737.68 36ZM725.68 36L712 49.68L710.32 48L722.32 36L710.32 24L712 22.32L725.68 36ZM761.68 24L760 25.68L734.32 -2.86102e-06L736 -1.68L742 4.32L748 -1.68L761.68 12L760 13.68L754 7.68L752.704 8.976L761.68 18L760 19.68L751.024 10.704L749.68 12L761.68 24ZM743.68 18L736 25.68L734.32 24L737.296 20.976L734.32 18L736 16.32L739.024 19.296L740.32 18L734.32 12L736 10.32L743.68 18ZM761.68 36L748 49.68L746.32 48L760 34.32L761.68 36ZM755.68 30L736 49.68L734.32 48L746.32 36L742 31.68L736 37.68L734.32 36L748 22.32L755.68 30ZM797.68 6L796 7.68L791.296 2.976L796 -1.68L797.68 -2.86102e-06L794.704 2.976L797.68 6ZM809.68 18L808 19.68L803.296 14.976L806.32 12L802 7.68L797.68 12L800.704 14.976L796 19.68L794.32 18L797.296 14.976L796 13.68L791.68 18L797.68 24L794.704 26.976L797.68 30L796 31.68L793.024 28.704L787.024 34.704L785.296 32.976L794.32 24L785.296 14.976L790 10.32L793.024 13.296L794.32 12L790 7.68L787.024 10.704L785.296 8.976L788.32 6L782.32 -2.86102e-06L784 -1.68L796 10.32L800.32 6L797.296 2.976L802 -1.68L805.024 1.296L808 -1.68L809.68 -2.86102e-06L803.68 6L805.024 7.296L808 4.32L809.68 6L806.704 8.976L809.68 12L806.704 14.976L809.68 18ZM809.68 30L805.024 34.704L803.296 32.976L808 28.32L809.68 30ZM809.68 24L797.68 36L806.704 45.024L805.024 46.704L802 43.68L799.024 46.704L797.296 45.024L800.32 42L791.296 32.976L793.024 31.296L796 34.32L800.32 30L797.296 26.976L802 22.32L805.024 25.296L806.32 24L802 19.68L799.024 22.704L797.296 20.976L802 16.32L809.68 24ZM809.68 42L808 43.68L803.296 39.024L808 34.32L809.68 36L806.704 39.024L809.68 42ZM770.704 8.976L769.024 10.704L766 7.68L760 13.68L758.32 12L764.32 6L761.296 2.976L763.024 1.296L770.704 8.976ZM782.704 2.976L773.68 12L776.704 14.976L772 19.68L770.32 18L773.296 14.976L772 13.68L767.68 18L772 22.32L775.024 19.296L776.704 20.976L770.704 26.976L773.68 30L772 31.68L767.296 26.976L770.32 24L766 19.68L761.68 24L764.704 26.976L760 31.68L758.32 30L761.296 26.976L758.32 24L764.32 18L761.296 14.976L766 10.32L769.024 13.296L776.32 6L772 1.68L770.704 2.976L773.68 6L772 7.68L767.296 2.976L772 -1.68L775.024 1.296L778 -1.68L782.704 2.976ZM797.68 48L796 49.68L790 43.68L787.024 46.704L785.296 45.024L788.32 42L778 31.68L773.68 36L776.704 39.024L769.024 46.704L767.296 45.024L773.296 39.024L772 37.68L760 49.68L758.32 48L764.32 42L761.296 39.024L766 34.32L769.024 37.296L770.32 36L766 31.68L760 37.68L758.32 36L766 28.32L772 34.32L776.32 30L773.296 26.976L778 22.32L781.024 25.296L782.32 24L776.32 18L782.32 12L779.296 8.976L784 4.32L785.68 6L782.704 8.976L785.68 12L782.704 14.976L788.704 20.976L787.024 22.704L781.024 16.704L779.68 18L788.704 26.976L784 31.68L782.32 30L785.296 26.976L784 25.68L779.68 30L787.024 37.296L790 34.32L794.704 39.024L791.68 42L793.024 43.296L796 40.32L797.68 42L794.704 45.024L797.68 48ZM785.68 48L784 49.68L778 43.68L772 49.68L770.32 48L781.024 37.296L785.68 42L784 43.68L781.024 40.704L779.68 42L785.68 48ZM803.296 2.976L802 1.68L800.704 2.976L802 4.32L803.296 2.976ZM779.296 2.976L778 1.68L776.704 2.976L778 4.32L779.296 2.976ZM791.296 14.976L790 13.68L788.704 14.976L790 16.32L791.296 14.976ZM803.296 26.976L802 25.68L800.704 26.976L802 28.32L803.296 26.976ZM767.296 14.976L766 13.68L764.704 14.976L766 16.32L767.296 14.976ZM779.296 26.976L778 25.68L776.704 26.976L778 28.32L779.296 26.976ZM791.296 39.024L790 37.68L788.704 39.024L790 40.32L791.296 39.024ZM767.296 39.024L766 37.68L764.704 39.024L766 40.32L767.296 39.024ZM857.68 18L833.68 42L839.68 48L838 49.68L832 43.68L830.704 45.024L833.68 48L832 49.68L824.32 42L856 10.32L857.68 12L854.704 14.976L857.68 18ZM857.68 36L844 49.68L836.32 42L856 22.32L857.68 24L839.68 42L844 46.32L856 34.32L857.68 36ZM851.68 6L815.68 42L821.68 48L820 49.68L812.32 42L848.32 6L842.32 -2.86102e-06L844 -1.68L851.68 6ZM842.704 2.976L808 37.68L806.32 36L836.32 6L830.32 -2.86102e-06L832 -1.68L838 4.32L839.296 2.976L836.32 -2.86102e-06L838 -1.68L842.704 2.976ZM827.68 6L808 25.68L806.32 24L809.296 20.976L806.32 18L818.32 6L817.024 4.704L808 13.68L806.32 12L820 -1.68L827.68 6ZM821.296 2.976L820 1.68L818.704 2.976L820 4.32L821.296 2.976ZM824.32 6L823.024 4.704L821.68 6L823.024 7.296L824.32 6ZM854.32 18L853.024 16.704L830.704 39.024L832 40.32L854.32 18ZM821.296 8.976L820 7.68L809.68 18L811.024 19.296L821.296 8.976ZM830.32 42L829.024 40.704L827.68 42L829.024 43.296L830.32 42ZM881.68 12L880 13.68L866.32 -2.86102e-06L868 -1.68L881.68 12ZM881.68 42L880 43.68L866.32 30L875.296 20.976L854.32 -2.86102e-06L856 -1.68L881.68 24L875.68 30L881.68 36L880 37.68L874 31.68L872.704 32.976L881.68 42ZM881.68 48L880 49.68L857.296 26.976L863.296 20.976L854.32 12L856 10.32L865.024 19.296L866.32 18L857.296 8.976L859.024 7.296L872.704 20.976L863.68 30L881.68 48ZM869.68 48L868 49.68L854.32 36L856 34.32L869.68 48ZM878.32 24L877.024 22.704L872.704 26.976L874 28.32L878.32 24ZM866.32 24L865.024 22.704L860.704 26.976L862 28.32L866.32 24ZM893.68 12L892 13.68L878.32 -2.86102e-06L880 -1.68L893.68 12ZM893.68 24L892 25.68L878.32 12L880 10.32L893.68 24ZM893.68 30L892 31.68L884.32 24L886 22.32L893.68 30ZM893.68 36L892 37.68L878.32 24L880 22.32L893.68 36ZM893.68 42L892 43.68L878.32 30L880 28.32L893.68 42ZM893.68 48L892 49.68L878.32 36L880 34.32L893.68 48ZM941.68 6L925.024 22.704L923.296 20.976L940 4.32L941.68 6ZM941.68 24L940 25.68L932.32 18L940 10.32L941.68 12L935.68 18L941.68 24ZM941.68 36L940 37.68L926.32 24L931.024 19.296L938.704 26.976L935.68 30L941.68 36ZM938.704 2.976L928 13.68L919.024 4.704L917.68 6L926.704 14.976L920.704 20.976L932.704 32.976L922 43.68L916 37.68L914.704 39.024L920.704 45.024L916 49.68L910 43.68L907.024 46.704L905.296 45.024L919.024 31.296L925.024 37.296L926.32 36L905.296 14.976L910 10.32L919.024 19.296L920.32 18L911.296 8.976L919.024 1.296L928 10.32L932.32 6L926.32 -2.86102e-06L928 -1.68L934 4.32L937.024 1.296L938.704 2.976ZM917.68 -2.86102e-06L910 7.68L904 1.68L899.68 6L905.68 12L898 19.68L890.32 12L892 10.32L898 16.32L902.32 12L898 7.68L895.024 10.704L893.296 8.976L904 -1.68L910 4.32L916 -1.68L917.68 -2.86102e-06ZM899.68 -2.86102e-06L892 7.68L890.32 6L898 -1.68L899.68 -2.86102e-06ZM941.68 48L940 49.68L934 43.68L928 49.68L926.32 48L934 40.32L941.68 48ZM914.704 26.976L904 37.68L890.32 24L892 22.32L895.024 25.296L898 22.32L907.024 31.296L908.32 30L899.296 20.976L904 16.32L914.704 26.976ZM917.68 30L898 49.68L896.32 48L916 28.32L917.68 30ZM902.704 39.024L892 49.68L890.32 48L896.32 42L890.32 36L892 34.32L898 40.32L901.024 37.296L902.704 39.024ZM989.68 42L988 43.68L980.32 36L982 34.32L985.024 37.296L986.32 36L982 31.68L976 37.68L974.32 36L980.32 30L976 25.68L974.704 26.976L977.68 30L976 31.68L968.32 24L970 22.32L973.024 25.296L974.32 24L970 19.68L964 25.68L962.32 24L968.32 18L967.024 16.704L964 19.68L962.32 18L965.296 14.976L964 13.68L961.024 16.704L959.296 14.976L962.32 12L961.024 10.704L958 13.68L956.32 12L964 4.32L965.68 6L962.704 8.976L964 10.32L967.024 7.296L968.704 8.976L965.68 12L967.024 13.296L970 10.32L971.68 12L968.704 14.976L970 16.32L976 10.32L982 16.32L983.296 14.976L980.32 12L982 10.32L985.024 13.296L986.32 12L982 7.68L979.024 10.704L977.296 8.976L980.32 6L979.024 4.704L976 7.68L974.32 6L977.296 2.976L976 1.68L971.68 6L974.704 8.976L973.024 10.704L965.296 2.976L967.024 1.296L970 4.32L976 -1.68L979.024 1.296L982 -1.68L983.68 -2.86102e-06L980.704 2.976L982 4.32L985.024 1.296L986.704 2.976L983.68 6L989.68 12L986.704 14.976L989.68 18L988 19.68L985.024 16.704L983.68 18L986.704 20.976L985.024 22.704L976 13.68L971.68 18L976 22.32L977.296 20.976L974.32 18L976 16.32L983.68 24L982 25.68L979.024 22.704L977.68 24L982 28.32L988 22.32L989.68 24L983.68 30L989.68 36L986.704 39.024L989.68 42ZM965.68 -2.86102e-06L943.024 22.704L941.296 20.976L944.32 18L938.32 12L941.296 8.976L938.32 6L940 4.32L943.024 7.296L944.32 6L941.296 2.976L943.024 1.296L950.704 8.976L949.024 10.704L946 7.68L944.704 8.976L947.68 12L946 13.68L943.024 10.704L941.68 12L946 16.32L956.32 6L952 1.68L950.704 2.976L953.68 6L952 7.68L944.32 -2.86102e-06L946 -1.68L949.024 1.296L952 -1.68L958 4.32L964 -1.68L965.68 -2.86102e-06ZM986.704 45.024L985.024 46.704L982 43.68L976 49.68L973.024 46.704L970 49.68L968.32 48L971.296 45.024L970 43.68L967.024 46.704L965.296 45.024L973.024 37.296L974.704 39.024L971.68 42L973.024 43.296L976 40.32L977.68 42L974.704 45.024L976 46.32L980.32 42L977.296 39.024L979.024 37.296L986.704 45.024ZM974.704 32.976L973.024 34.704L970 31.68L965.68 36L967.024 37.296L970 34.32L971.68 36L964 43.68L962.32 42L965.296 39.024L964 37.68L959.68 42L962.704 45.024L961.024 46.704L953.296 39.024L955.024 37.296L958 40.32L962.32 36L961.024 34.704L958 37.68L956.32 36L959.296 32.976L958 31.68L955.024 34.704L953.296 32.976L956.32 30L952 25.68L950.704 26.976L953.68 30L952 31.68L949.024 28.704L947.68 30L953.68 36L947.68 42L952 46.32L953.296 45.024L950.32 42L952 40.32L959.68 48L958 49.68L955.024 46.704L952 49.68L946 43.68L940 49.68L938.32 48L944.32 42L938.32 36L941.296 32.976L938.32 30L940 28.32L947.68 36L946 37.68L943.024 34.704L941.68 36L946 40.32L950.32 36L941.296 26.976L943.024 25.296L946 28.32L947.296 26.976L944.32 24L946 22.32L949.024 25.296L950.32 24L947.296 20.976L949.024 19.296L952 22.32L953.296 20.976L950.32 18L952 16.32L955.024 19.296L956.32 18L953.296 14.976L955.024 13.296L962.704 20.976L961.024 22.704L958 19.68L956.704 20.976L959.68 24L958 25.68L955.024 22.704L953.68 24L958 28.32L961.024 25.296L962.704 26.976L959.68 30L961.024 31.296L964 28.32L965.68 30L962.704 32.976L964 34.32L968.32 30L965.296 26.976L967.024 25.296L974.704 32.976ZM1013.68 18L1012 19.68L1004.32 12L1012 4.32L1013.68 6L1007.68 12L1013.68 18ZM995.68 -2.86102e-06L988 7.68L986.32 6L994 -1.68L995.68 -2.86102e-06ZM1001.68 -2.86102e-06L988 13.68L986.32 12L1000 -1.68L1001.68 -2.86102e-06ZM1013.68 24L1000 37.68L998.32 36L1010.32 24L1000 13.68L988 25.68L986.32 24L1012 -1.68L1013.68 -2.86102e-06L1001.68 12L1013.68 24ZM1007.68 24L1006 25.68L998.32 18L1000 16.32L1007.68 24ZM1013.68 30L1003.02 40.704L1001.3 39.024L1012 28.32L1013.68 30ZM1004.7 26.976L997.024 34.704L995.296 32.976L1003.02 25.296L1004.7 26.976ZM998.704 20.976L988 31.68L986.32 30L997.024 19.296L998.704 20.976ZM1013.68 36L1000 49.68L986.32 36L1000 22.32L1001.68 24L989.68 36L1000 46.32L1012 34.32L1013.68 36ZM1001.68 42L1000 43.68L992.32 36L994 34.32L1001.68 42ZM995.68 48L994 49.68L986.32 42L988 40.32L995.68 48ZM1061.68 6L1060 7.68L1052.32 -2.86102e-06L1054 -1.68L1061.68 6ZM1061.68 12L1060 13.68L1046.32 -2.86102e-06L1048 -1.68L1061.68 12ZM1037.68 6L1033.02 10.704L1028.32 6L1033.02 1.296L1037.68 6ZM1043.68 6L1030 19.68L1022.32 12L1024 10.32L1030 16.32L1031.3 14.976L1019.3 2.976L1024 -1.68L1028.7 2.976L1025.68 6L1033.02 13.296L1040.32 6L1034.32 -2.86102e-06L1036 -1.68L1043.68 6ZM1061.68 36L1057.02 40.704L1052.32 36L1057.02 31.296L1061.68 36ZM1022.7 8.976L1021.02 10.704L1010.32 -2.86102e-06L1012 -1.68L1022.7 8.976ZM1061.68 24L1060 25.68L1048 13.68L1025.68 36L1037.68 48L1036 49.68L1022.32 36L1048 10.32L1061.68 24ZM1061.68 48L1060 49.68L1046.32 36L1052.32 30L1049.3 26.976L1052.32 24L1051.02 22.704L1033.02 40.704L1031.3 39.024L1051.02 19.296L1058.7 26.976L1049.68 36L1061.68 48ZM1049.68 30L1043.68 36L1046.7 39.024L1045.02 40.704L1040.32 36L1048 28.32L1049.68 30ZM1028.7 20.976L1027.02 22.704L1019.3 14.976L1021.02 13.296L1028.7 20.976ZM1052.7 45.024L1048 49.68L1043.3 45.024L1048 40.32L1052.7 45.024ZM1025.68 24L1018 31.68L1010.32 24L1012 22.32L1018 28.32L1022.32 24L1021.02 22.704L1018 25.68L1013.3 20.976L1016.32 18L1010.32 12L1013.3 8.976L1010.32 6L1012 4.32L1019.68 12L1016.7 14.976L1025.68 24ZM1043.68 42L1039.02 46.704L1034.32 42L1039.02 37.296L1043.68 42ZM1025.68 48L1024 49.68L1010.32 36L1012 34.32L1025.68 48ZM1019.68 48L1018 49.68L1010.32 42L1012 40.32L1019.68 48ZM461.68 54L460 55.68L455.296 50.976L460 46.32L461.68 48L458.704 50.976L461.68 54ZM461.68 60L460 61.68L446.32 48L448 46.32L461.68 60ZM461.68 66L460 67.68L449.296 56.976L451.024 55.296L461.68 66ZM461.68 84L460 85.68L449.296 74.976L451.024 73.296L461.68 84ZM419.68 48L412 55.68L410.32 54L418 46.32L419.68 48ZM449.68 54L442 61.68L437.296 56.976L440.32 54L436 49.68L434.704 50.976L437.68 54L430 61.68L425.296 56.976L428.32 54L424 49.68L422.704 50.976L425.68 54L418 61.68L415.024 58.704L413.68 60L425.68 72L412 85.68L410.32 84L416.32 78L413.296 74.976L419.296 68.976L410.32 60L424 46.32L430 52.32L436 46.32L442 52.32L445.024 49.296L449.68 54ZM461.68 96L460 97.68L439.024 76.704L418 97.68L416.32 96L445.024 67.296L448 70.32L449.296 68.976L445.024 64.704L412 97.68L410.32 96L416.32 90L413.296 87.024L433.024 67.296L436 70.32L437.296 68.976L433.024 64.704L427.024 70.704L419.296 62.976L424 58.32L430 64.32L436 58.32L442 64.32L448 58.32L461.68 72L460 73.68L454 67.68L443.68 78L461.68 96ZM449.68 96L448 97.68L436 85.68L424 97.68L422.32 96L439.024 79.296L440.704 80.976L437.68 84L449.68 96ZM416.704 68.976L412 73.68L410.32 72L413.296 68.976L410.32 66L412 64.32L416.704 68.976ZM437.68 96L436 97.68L431.296 93.024L433.024 91.296L437.68 96ZM428.32 78L427.024 76.704L416.704 87.024L418 88.32L428.32 78Z" fill="#3380C8"/>
</g>
</svg>
