<?xml version="1.0" encoding="UTF-8"?>
<svg width="17px" height="17px" viewBox="0 0 17 17" version="1.1" xmlns="http://www.w3.org/2000/svg" xmlns:xlink="http://www.w3.org/1999/xlink">
    <!-- Generator: Sketch 64 (93537) - https://sketch.com -->
    <title>search-24px (4)</title>
    <desc>Created with Sketch.</desc>
    <g id="Symbols" stroke="none" stroke-width="1" fill="none" fill-rule="evenodd">
        <g id="Nav" transform="translate(-1226.000000, -49.000000)">
            <g transform="translate(0.000000, 27.000000)" id="search-24px-(4)">
                <g transform="translate(1226.000000, 22.000000)">
                    <polygon id="Path" points="0 0 17 0 17 17 0 17"></polygon>
                    <path d="M12.1497999,10.6918239 L11.3819325,10.6918239 L11.109777,10.4293882 C12.0623213,9.32132647 12.6357919,7.88279017 12.6357919,6.31789594 C12.6357919,2.82847341 9.80731847,0 6.31789594,0 C2.82847341,0 0,2.82847341 0,6.31789594 C0,9.80731847 2.82847341,12.6357919 6.31789594,12.6357919 C7.88279017,12.6357919 9.32132647,12.0623213 10.4293882,11.109777 L10.6918239,11.3819325 L10.6918239,12.1497999 L15.5517439,17 L17,15.5517439 L12.1497999,10.6918239 Z M6.31789594,10.6918239 C3.8976558,10.6918239 1.94396798,8.73813608 1.94396798,6.31789594 C1.94396798,3.8976558 3.8976558,1.94396798 6.31789594,1.94396798 C8.73813608,1.94396798 10.6918239,3.8976558 10.6918239,6.31789594 C10.6918239,8.73813608 8.73813608,10.6918239 6.31789594,10.6918239 Z" id="Shape" fill="#FFFFFF" fill-rule="nonzero"></path>
                </g>
            </g>
        </g>
    </g>
</svg>