<?xml version="1.0" encoding="UTF-8"?>
<svg width="18px" height="18px" viewBox="0 0 18 18" version="1.1" xmlns="http://www.w3.org/2000/svg" xmlns:xlink="http://www.w3.org/1999/xlink">
    <!-- Generator: Sketch 58 (84663) - https://sketch.com -->
    <title>Shape</title>
    <desc>Created with Sketch.</desc>
    <g id="With-Search" stroke="none" stroke-width="1" fill="none" fill-rule="evenodd">
        <g id="Workforce-/-Landing-/-Hover" transform="translate(-547.000000, -661.000000)" fill="#F7C636" fill-rule="nonzero">
            <g id="open_in_new-24px" transform="translate(547.000000, 661.000000)">
                <path d="M16,16 L2,16 L2,2 L9,2 L9,0 L2,0 C0.89,0 0,0.9 0,2 L0,16 C0,17.1 0.89,18 2,18 L16,18 C17.1,18 18,17.1 18,16 L18,9 L16,9 L16,16 Z M11,0 L11,2 L14.59,2 L4.76,11.83 L6.17,13.24 L16,3.41 L16,7 L18,7 L18,0 L11,0 Z" id="Shape"></path>
            </g>
        </g>
    </g>
</svg>