<?xml version="1.0" encoding="UTF-8"?>
<svg width="30px" height="30px" viewBox="0 0 30 30" version="1.1" xmlns="http://www.w3.org/2000/svg" xmlns:xlink="http://www.w3.org/1999/xlink">
    <!-- Generator: Sketch 60.1 (88133) - https://sketch.com -->
    <title>Shape</title>
    <desc>Created with Sketch.</desc>
    <g id="No-Search" stroke="none" stroke-width="1" fill="none" fill-rule="evenodd">
        <g id="Data-Kits-/-Home/-Suggest-Hover" transform="translate(-1180.000000, -546.000000)" fill="#FFFFFF" fill-rule="nonzero">
            <path d="M1209.985,549 C1209.985,547.35 1208.65,546 1207,546 L1183,546 C1181.35,546 1180,547.35 1180,549 L1180,567 C1180,568.65 1181.35,570 1183,570 L1204,570 L1210,576 L1209.985,549 Z M1204,564 L1186,564 L1186,561 L1204,561 L1204,564 Z M1204,559.5 L1186,559.5 L1186,556.5 L1204,556.5 L1204,559.5 Z M1204,555 L1186,555 L1186,552 L1204,552 L1204,555 Z" id="Shape" transform="translate(1195.000000, 561.000000) scale(-1, 1) translate(-1195.000000, -561.000000) "></path>
        </g>
    </g>
</svg>