<svg xmlns="http://www.w3.org/2000/svg" width="13" height="10" viewBox="0 0 13 10">
    <path fill="#FFD67F" fill-rule="evenodd" d="M3.229 10c.66 0 1.234-.226 1.72-.68.486-.452.73-.981.73-1.585 0-.293-.046-.576-.135-.85-.09-.274-.243-.524-.46-.75-.227-.236-.524-.42-.893-.553-.368-.132-.844-.198-1.43-.198h-.793c.095-.982.444-1.817 1.048-2.506.604-.69 1.44-1.293 2.506-1.813L4.9.06C3.55.655 2.395 1.528 1.437 2.68.48 3.83 0 4.974 0 6.106c0 1.218.278 2.172.835 2.86C1.392 9.657 2.19 10 3.23 10zm6.98 0c.661 0 1.235-.226 1.72-.68.487-.452.73-.981.73-1.585 0-.293-.045-.576-.134-.85-.09-.274-.243-.524-.46-.75-.227-.236-.524-.42-.893-.553-.368-.132-.845-.198-1.43-.198H8.95c.095-.982.444-1.817 1.048-2.506.604-.69 1.44-1.293 2.506-1.813L11.88.06c-1.35.595-2.504 1.468-3.462 2.62C7.46 3.83 6.981 4.974 6.981 6.106c0 1.218.278 2.172.835 2.86C8.373 9.657 9.171 10 10.21 10z"/>
</svg>
