<?xml version="1.0" encoding="UTF-8"?>
<svg width="16px" height="12px" viewBox="0 0 16 12" version="1.1" xmlns="http://www.w3.org/2000/svg" xmlns:xlink="http://www.w3.org/1999/xlink">
    <!-- Generator: Sketch 60.1 (88133) - https://sketch.com -->
    <title>Items</title>
    <desc>Created with Sketch.</desc>
    <g id="No-Search" stroke="none" stroke-width="1" fill="none" fill-rule="evenodd">
        <g id="Data-Kits-/-Home" transform="translate(-415.000000, -781.000000)" fill="#13192F" fill-rule="nonzero">
            <g id="Group-6" transform="translate(230.000000, 405.000000)">
                <g id="Group-7" transform="translate(170.000000, 365.000000)">
                    <g id="Group-3">
                        <g id="Stats" transform="translate(15.000000, 10.000000)">
                            <path d="M-7.10542736e-15,6.53846154 L4.61538462,6.53846154 L4.61538462,1 L-7.10542736e-15,1 L-7.10542736e-15,6.53846154 Z M-7.10542736e-15,13 L4.61538462,13 L4.61538462,7.46153846 L-7.10542736e-15,7.46153846 L-7.10542736e-15,13 Z M5.53846154,13 L10.1538462,13 L10.1538462,7.46153846 L5.53846154,7.46153846 L5.53846154,13 Z M11.0769231,13 L15.6923077,13 L15.6923077,7.46153846 L11.0769231,7.46153846 L11.0769231,13 Z M5.53846154,6.53846154 L10.1538462,6.53846154 L10.1538462,1 L5.53846154,1 L5.53846154,6.53846154 Z M11.0769231,1 L11.0769231,6.53846154 L15.6923077,6.53846154 L15.6923077,1 L11.0769231,1 Z" id="Items"></path>
                        </g>
                    </g>
                </g>
            </g>
        </g>
    </g>
</svg>