<?xml version="1.0" encoding="UTF-8" standalone="no"?>
<!-- Created with PhotoLine 21.50 (www.pl32.com) -->
<!DOCTYPE svg PUBLIC "-//W3C//DTD SVG 1.1//EN" "http://www.w3.org/Graphics/SVG/1.1/DTD/svg11.dtd">
<svg width="64" height="39" viewBox="0 0 64 39" version="1.1" xmlns="http://www.w3.org/2000/svg" xmlns:xlink="http://www.w3.org/1999/xlink">
  <g transform="matrix(-1 0 -0 -1 64 39)">
    <path fill="#565c65" d="M63.36 4 L60.15 0.74 C59.73 0.3 59.24 0.09 58.68 0.09 C58.12 0.09 57.63 0.3 57.2 0.74 L32 26.4 L6.8 0.74 C6.37 0.31 5.88 0.09 5.32 0.09 C4.77 0.09 4.27 0.31 3.85 0.74 L0.64 4 C0.21 4.44 0 4.94 0 5.51 C0 6.07 0.21 6.57 0.64 7.01 L30.52 37.43 C30.95 37.87 31.44 38.09 32 38.09 C32.56 38.09 33.05 37.87 33.47 37.43 L63.36 7.01 C63.79 6.57 64 6.07 64 5.51 C64 4.94 63.79 4.44 63.36 4 Z"/>
  </g>
</svg>
