<?xml version="1.0" encoding="utf-8"?>
<svg id="master-artboard" xmlns="http://www.w3.org/2000/svg" viewBox="0 0 500 500" width="500px" height="500px"><g transform="matrix(7.6923076923076925, 0, 0, 7.6923076923076925, -0.000002370467882428784, 57.6923053218398)"><title>correct8</title><path fill-rule="evenodd" d="M63.268 7.063l-5.616-5.61C56.882.685 55.946.3 54.845.3s-2.038.385-2.808 1.155L24.951 28.552 12.81 16.385c-.77-.77-1.707-1.155-2.808-1.155-1.1 0-2.037.385-2.807 1.154l-5.616 5.61C.81 22.764.425 23.7.425 24.8s.385 2.035 1.155 2.805l14.947 14.93 5.616 5.61c.77.77 1.706 1.154 2.807 1.154s2.038-.384 2.808-1.154l5.616-5.61 29.894-29.86c.77-.77 1.157-1.707 1.157-2.805 0-1.101-.385-2.036-1.156-2.805l-.001-.002z" style="fill: rgb(22, 46, 81);"/></g></svg>